<svg id="Layer_1" data-name="Layer 1" xmlns="http://www.w3.org/2000/svg" viewBox="0 0 100.07 113.92"><defs><style>.cls-1{fill:#fff;}.cls-2{fill:#d5c077;}.cls-3{fill:#0984c7;}.cls-4{fill:#e73c51;}.cls-5{fill:#fabe57;}.cls-6{fill:#040504;}.cls-7{fill:#00a653;}.cls-8{fill:#030303;}.cls-9{fill:#050606;}.cls-10{fill:#020202;}.cls-11{fill:#fab032;}.cls-12{fill:#feffff;}.cls-13{fill:#fdfefe;}.cls-14{fill:#fafbfb;}</style></defs><path class="cls-1" d="M407.11,444.38q0,28.26,0,56.53c0,.32-.07.39-.38.38H307.43c-.31,0-.38-.07-.38-.38q0-56.58,0-113.15c0-.31.07-.38.38-.38h99.31c.31,0,.38.07.38.38Q407.11,416.07,407.11,444.38Zm-49.41,47a7.71,7.71,0,0,0,11.14,6.3,7.57,7.57,0,0,0,4.26-6.28c.43,0,.86,0,1.29,0a7.72,7.72,0,1,0-8.31-8.33h-1.35a7.72,7.72,0,0,0-15.38,0l-1.33,0c0-.07,0-.14,0-.2a7.72,7.72,0,1,0-7,8.52c0,.24.06.49.1.74a7.74,7.74,0,0,0,14.21,2.7,9.11,9.11,0,0,0,1.16-3.44A9.11,9.11,0,0,0,357.7,491.38Zm.18-96.91h0a.93.93,0,0,1-.05.41,16.38,16.38,0,0,0-.46,5.31,16,16,0,0,0,2.89,7.78,25.06,25.06,0,0,0,6.14,6.1,15.57,15.57,0,0,1,5.66,7.48,16.23,16.23,0,0,1,.75,7.91A15.88,15.88,0,0,1,370,436.4a27.58,27.58,0,0,1-2.06,2.39l0,0,0,0a1.6,1.6,0,0,0,.65-.12,14.09,14.09,0,0,0,6.42-4.07c.09-.1.16-.24.34-.27a1,1,0,0,1,0,.19,22.49,22.49,0,0,1-9.51,14.08c-.51.35-1,.68-1.56,1l-.1,0,0,0,.08-.06c.12,0,.24,0,.36-.05a30.15,30.15,0,0,0,22.45-27.7,28.72,28.72,0,0,0-.43-6.67,30.08,30.08,0,0,0-32.13-24.76,28.59,28.59,0,0,0-6.47,1.25,30.17,30.17,0,0,0-21.09,27,29.07,29.07,0,0,0,.77,8.71,30.21,30.21,0,0,0,20.39,21.77,6.48,6.48,0,0,0,1.59.38,22.71,22.71,0,0,1-9.39-29.33,14.34,14.34,0,0,0,2.69,6,13.58,13.58,0,0,0,5,4.06.43.43,0,0,0-.06-.42,30.18,30.18,0,0,1,7.85-33.76A12.81,12.81,0,0,1,357.88,394.47ZM378.1,458a4.84,4.84,0,1,0,4.94,4.83A4.86,4.86,0,0,0,378.1,458Zm-41.68,5.82.26-.16a2.89,2.89,0,0,0-1.07-5.42,25.85,25.85,0,0,0-3.41-.11c-.31,0-.39.08-.39.39,0,1.74,0,3.47,0,5.21,0,1.16,0,2.33,0,3.49,0,.12-.08.32.15.32a3.15,3.15,0,0,0,1.23-.05c.24-.1,0-.58.09-.89v0a1.86,1.86,0,0,1,3.68-.15,4,4,0,0,1,0,.91c0,.15,0,.21.2.23,1.25.13,1.35,0,1.24-1.21a2.93,2.93,0,0,0-.05-.29A3,3,0,0,0,336.42,463.77ZM327,464h0c0-1,0-2.06,0-3.08a2.89,2.89,0,0,0-1.68-2.67,3.16,3.16,0,0,0-4.63,2.89c0,1.75,0,3.5,0,5.24,0,.36-.11.85.07,1s.71,0,1.08.08.31-.1.31-.34c0-.73,0-1.47,0-2.2s0-.61.63-.61a2.49,2.49,0,0,1,2.8,2.19c0,.32-.15.75.12.92s.65,0,1,0,.36-.11.35-.38C327,466.08,327,465,327,464Zm63,2.15.07-.13,2.24-2.8a6.94,6.94,0,0,0,.85-1.28,2.69,2.69,0,0,0-.68-3.25,3.3,3.3,0,0,0-4.33.12,2.79,2.79,0,0,0,.41,4.3l.34-.42a2.2,2.2,0,0,0,.39-.53c.09-.26-.22-.37-.32-.56a1.56,1.56,0,0,1,.12-1.76,1.76,1.76,0,0,1,2-.42A1.44,1.44,0,0,1,392,461a2.43,2.43,0,0,1-.6,1.26l-3.08,3.87-1.12,1.41h5.65c1,0,.95,0,1-1,0-.31-.08-.4-.39-.39C392.29,466.16,391.18,466.15,390,466.15Zm-24.52,0c.63-.79,1.21-1.5,1.77-2.22a11.45,11.45,0,0,0,1.39-1.92,2.68,2.68,0,0,0,0-2.48,3,3,0,0,0-3.15-1.56,2.81,2.81,0,0,0-2.48,1.77,2.7,2.7,0,0,0,.48,2.88c.48.59.46.57,1,0,.31-.36.39-.61,0-1a1.39,1.39,0,0,1,0-1.68,1.76,1.76,0,0,1,1.78-.61,1.49,1.49,0,0,1,1.16,1.27,2.12,2.12,0,0,1-.58,1.6l-3.42,4.29-.81,1h5.66c1,0,.94,0,1-1,0-.32-.09-.39-.39-.38C367.8,466.16,366.69,466.15,365.5,466.15Zm-13.93-23.77a6,6,0,0,0,10.91,0,5.57,5.57,0,0,1-2-.38,3.38,3.38,0,0,0-3.14.37.44.44,0,0,1-.58,0,3.23,3.23,0,0,0-2.74-.49A7.16,7.16,0,0,1,351.57,442.38ZM310,462.78c0,1.19,0,2.39,0,3.58,0,.37-.17.87.08,1.07s.72.05,1.09.07.32-.06.29-.3a2.47,2.47,0,0,1,1.64-2.57c.61-.3,1.22-.58,1.8-.93a2.92,2.92,0,0,0,1.42-3.16,2.87,2.87,0,0,0-2.44-2.34,25.83,25.83,0,0,0-3.52-.12c-.3,0-.37.09-.37.38C310,459.9,310,461.34,310,462.78Zm44.23-2.07c.83,0,.83,0,.6-.81l0,0a2.6,2.6,0,0,0-2.11-1.84,3,3,0,0,0-3,.93,2.39,2.39,0,0,0,.45,3.6,7,7,0,0,0,1.62.74,5.18,5.18,0,0,1,1.38.67,1.17,1.17,0,0,1,.49,1.27,1.39,1.39,0,0,1-1.33,1.07,1.73,1.73,0,0,1-1.85-1c-.09-.2,0-.51-.23-.6a2.71,2.71,0,0,0-.7,0,1.4,1.4,0,0,1-.29,0c-.25,0-.35,0-.32.31a2.71,2.71,0,0,0,.87,1.79,3.53,3.53,0,0,0,3.74.54,2.55,2.55,0,0,0,1.59-2.26,2.45,2.45,0,0,0-1.4-2.44,11.6,11.6,0,0,0-1.5-.63,3.78,3.78,0,0,1-1.27-.67,1.12,1.12,0,0,1-.17-1.51,1.46,1.46,0,0,1,1.56-.53,1.3,1.3,0,0,1,1.08,1.06c.05.34.19.38.46.35Zm48.41,3.07a13.84,13.84,0,0,0-1.94-.89,1.85,1.85,0,0,1-1.18-1.83v-1.84c0-1.21,0-1.2-1.21-1.14-.19,0-.27.06-.26.26,0,1.11-.06,2.23.05,3.33a2.8,2.8,0,0,0,1.54,2.32c.56.3,1.15.48,1.72.72a1.79,1.79,0,0,1,1.28,1.8c0,.31-.14.73.07.92s.63,0,1,.07.38-.1.38-.39c0-1.84,0-3.67,0-5.5,0-.32.11-.74-.05-.93s-.63,0-.95-.07-.42.08-.41.4C402.66,461.91,402.65,462.81,402.65,463.78Zm-58.14,0V461c0-1.1,0-1.09-1.1-.88-.27.05-.38.14-.37.45,0,1.94,0,3.88,0,5.83,0,.34-.12.8.05,1s.68,0,1,.08.38-.11.38-.4C344.5,466,344.51,464.88,344.51,463.77ZM383,448.67a6.06,6.06,0,0,1,0-.74c0-.37-.17-.5-.43-.35a1.07,1.07,0,0,1-1.29,0c-.22-.14-.47-.07-.45.33s0,1,0,1.58c0,.12,0,.28.15.28s.15-.17.15-.28c0-.43,0-.86,0-1.29,0-.12-.06-.27.1-.32a.31.31,0,0,1,.33.12c.23.21.17.48.19.74s-.05.36.18.34.12-.22.11-.34a.9.9,0,0,1,.28-.79.32.32,0,0,1,.31-.07c.12.05.08.16.08.25,0,.48,0,.95,0,1.42,0,.09,0,.22.13.21s.12-.12.12-.21C383.05,449.26,383,449,383,448.67Zm-39.26,9.42c-.74,0-.74,0-.74.72a.57.57,0,0,1,0,.13c-.06.38.07.51.46.37a1.77,1.77,0,0,1,.65-.09c.3,0,.36-.11.36-.39C344.5,458.09,344.51,458.09,343.78,458.09Zm35.76-9.33v.74c0,.1,0,.25.12.26s.19-.13.19-.26v-1.24c0-.26,0-.52.36-.47a.12.12,0,0,0,.15-.14c0-.09-.08-.1-.15-.1h-1.08c-.07,0-.14,0-.15.11a.13.13,0,0,0,.17.13c.39-.06.42.17.39.47S379.54,448.59,379.54,448.76Z" transform="translate(-307.05 -387.38)"/><path class="cls-2" d="M368,438.79A27.58,27.58,0,0,0,370,436.4a15.88,15.88,0,0,0,2.79-6.95,16.23,16.23,0,0,0-.75-7.91,15.57,15.57,0,0,0-5.66-7.48,25.06,25.06,0,0,1-6.14-6.1,15.62,15.62,0,0,1-2.44-13.09.78.78,0,0,0,.06-.4l0,0h0a0,0,0,0,0,0,0,12.86,12.86,0,0,0-2.09,1.65,30.14,30.14,0,0,0-7.85,33.75c.05.12.15.24.06.43a13.9,13.9,0,0,1-5-4.06,14.55,14.55,0,0,1-2.68-6,22.71,22.71,0,0,0,9.39,29.33,6.06,6.06,0,0,1-1.59-.38,29.54,29.54,0,0,1-11-6.22,29.9,29.9,0,0,1-9.35-15.55,28.71,28.71,0,0,1-.76-8.71,30.15,30.15,0,0,1,21.09-27,28.59,28.59,0,0,1,6.47-1.25,30.12,30.12,0,0,1,32.13,24.76,29.2,29.2,0,0,1,.42,6.67A30.16,30.16,0,0,1,371.3,447a28.93,28.93,0,0,1-6.64,2.61,2.2,2.2,0,0,1-.37.05h0c.52-.34,1-.66,1.56-1a22.49,22.49,0,0,0,9.51-14.08c0-.06,0-.11,0-.2-.18,0-.25.18-.34.28a14.15,14.15,0,0,1-6.42,4.06,1.6,1.6,0,0,1-.65.12Z" transform="translate(-307.05 -387.38)"/><path class="cls-3" d="M341,491.38a7.72,7.72,0,1,1,7-8.51c0,.06,0,.13,0,.2v1.3c0,.1,0,.21-.05.32a7.74,7.74,0,0,1-5.69,6.46,2.36,2.36,0,0,1,0-.7.82.82,0,0,1,.6-.88,6.34,6.34,0,0,0,3.87-6.28,2.26,2.26,0,0,0,0-.37A6.44,6.44,0,1,0,341,490.1Z" transform="translate(-307.05 -387.38)"/><path class="cls-4" d="M366.08,483.07a7.72,7.72,0,1,1,8.31,8.32c-.43,0-.86,0-1.29,0l-1.29-.21-.07,0a7.67,7.67,0,0,1-5.67-6.76,2.88,2.88,0,0,1,1.35.31,6.28,6.28,0,0,0,4.33,5.08,3.88,3.88,0,0,0,1.34.29l.16,0a6.44,6.44,0,1,0-5.9-6.83Z" transform="translate(-307.05 -387.38)"/><path class="cls-5" d="M346.7,483.29a6.34,6.34,0,0,1-3.87,6.28.83.83,0,0,0-.6.88,2.34,2.34,0,0,0,0,.7,6.41,6.41,0,0,0,12.8,0l1.35.2a9.22,9.22,0,0,1-1.16,3.45,7.74,7.74,0,0,1-14.21-2.71c0-.25-.07-.5-.1-.74V490.1A7.75,7.75,0,0,1,346.7,483.29Z" transform="translate(-307.05 -387.38)"/><path class="cls-6" d="M349.35,483.05a7.72,7.72,0,0,1,15.39,0,6.38,6.38,0,0,1,0,1.31,7.69,7.69,0,0,1-.77,2.74,7.56,7.56,0,0,1-4.95,4,3.83,3.83,0,0,1,.05-1.35,6.25,6.25,0,0,0,4.31-5.1,4.7,4.7,0,0,0,.08-1.4c0-.18,0-.36-.05-.53a6.43,6.43,0,0,0-12.78.52Z" transform="translate(-307.05 -387.38)"/><path class="cls-7" d="M363.44,483.29a4.69,4.69,0,0,1-.07,1.4,6.33,6.33,0,0,0-4.32,5.1,4.08,4.08,0,0,0,0,1.35,2.51,2.51,0,0,0,.07.82,6.42,6.42,0,0,0,12.73-.77l1.29.21a7.56,7.56,0,0,1-4.26,6.28,7.71,7.71,0,0,1-11.14-6.3V490.1A7.68,7.68,0,0,1,363.44,483.29Z" transform="translate(-307.05 -387.38)"/><path class="cls-8" d="M378.1,458a4.84,4.84,0,1,1-4.89,4.88A4.82,4.82,0,0,1,378.1,458Zm3.45,4.86a3.42,3.42,0,1,0-6.84,0,3.42,3.42,0,1,0,6.84,0Z" transform="translate(-307.05 -387.38)"/><path class="cls-9" d="M336.42,463.77a3,3,0,0,1,2,2.24,2.74,2.74,0,0,1,.05.28c.11,1.24,0,1.34-1.24,1.21-.18,0-.2-.08-.2-.23a4,4,0,0,0,0-.91,1.85,1.85,0,0,0-3.67.16s0,0,0,0c-.05.3.15.78-.09.89a3.36,3.36,0,0,1-1.23,0c-.23,0-.15-.19-.15-.31,0-1.17,0-2.34,0-3.5,0-1.74,0-3.47,0-5.21,0-.31.07-.4.39-.39a25.76,25.76,0,0,1,3.4.11,2.89,2.89,0,0,1,1.07,5.43Zm-3.12.39a10.46,10.46,0,0,1,2-1.2,3.06,3.06,0,0,0,.8-.52,1.7,1.7,0,0,0,.51-1.74,1.59,1.59,0,0,0-1.23-1.16,3,3,0,0,0-1-.08c-.35,0-.82-.16-1,.07s-.05.66-.05,1C333.29,461.72,333.3,462.91,333.3,464.16Z" transform="translate(-307.05 -387.38)"/><path class="cls-10" d="M327,464c0,1,0,2.08,0,3.12,0,.27,0,.41-.35.38s-.73.11-1,0-.08-.61-.12-.92a2.5,2.5,0,0,0-2.81-2.2c-.63,0-.63,0-.63.61s0,1.48,0,2.21c0,.24,0,.37-.31.34s-.86.15-1.08-.08-.07-.68-.07-1c0-1.75,0-3.49,0-5.24a3.15,3.15,0,0,1,4.62-2.89,2.88,2.88,0,0,1,1.69,2.67c0,1,0,2.05,0,3.08Zm-1.45,0c0-1.07.05-2.08,0-3.08a1.7,1.7,0,0,0-3.4.09c0,.57,0,1.14,0,1.71,0,.14,0,.24.2.22A3.91,3.91,0,0,1,325.53,464Z" transform="translate(-307.05 -387.38)"/><path class="cls-6" d="M390,466.15c1.16,0,2.27,0,3.38,0,.31,0,.39.08.38.39,0,1,0,1-1,1h-5.65l1.12-1.41,3.09-3.88A2.36,2.36,0,0,0,392,461a1.44,1.44,0,0,0-.89-1.54,1.75,1.75,0,0,0-2,.42,1.58,1.58,0,0,0-.12,1.76c.11.19.42.3.33.56a2.41,2.41,0,0,1-.39.53l-.34.42a2.79,2.79,0,0,1-.41-4.3,3.29,3.29,0,0,1,4.33-.12,2.7,2.7,0,0,1,.68,3.25,6.52,6.52,0,0,1-.86,1.28L390.09,466A1.56,1.56,0,0,1,390,466.15Z" transform="translate(-307.05 -387.38)"/><path class="cls-8" d="M365.5,466.15c1.19,0,2.3,0,3.41,0,.3,0,.39.06.39.38,0,1,0,1-1,1h-5.66l.81-1,3.42-4.29a2.12,2.12,0,0,0,.58-1.6,1.49,1.49,0,0,0-1.16-1.27,1.76,1.76,0,0,0-1.78.61,1.39,1.39,0,0,0,0,1.68c.35.41.27.66,0,1-.5.56-.48.58-1,0a2.7,2.7,0,0,1-.48-2.88,2.83,2.83,0,0,1,2.48-1.77,3,3,0,0,1,3.15,1.56,2.68,2.68,0,0,1,0,2.48,11.45,11.45,0,0,1-1.39,1.92C366.71,464.65,366.13,465.36,365.5,466.15Z" transform="translate(-307.05 -387.38)"/><path class="cls-2" d="M351.57,442.38a7.16,7.16,0,0,0,2.43-.49,3.22,3.22,0,0,1,2.74.49.44.44,0,0,0,.58,0,3.38,3.38,0,0,1,3.14-.37,5.59,5.59,0,0,0,2,.38,6,6,0,0,1-10.92,0Z" transform="translate(-307.05 -387.38)"/><path class="cls-9" d="M310,462.78c0-1.44,0-2.88,0-4.32,0-.29.07-.39.37-.38a25.83,25.83,0,0,1,3.52.12,2.89,2.89,0,0,1,2.45,2.34,2.93,2.93,0,0,1-1.43,3.16c-.58.35-1.19.63-1.8.93a2.47,2.47,0,0,0-1.64,2.57c0,.24-.05.32-.29.3s-.86.11-1.09-.07-.07-.7-.08-1.07C310,465.17,310,464,310,462.78Zm1.46,1.39a11.46,11.46,0,0,1,2-1.19,3.86,3.86,0,0,0,.89-.6,1.66,1.66,0,0,0,.46-1.72,1.51,1.51,0,0,0-1.22-1.12,10.5,10.5,0,0,0-1.86-.09c-.25,0-.3.08-.29.3C311.48,461.2,311.47,462.64,311.47,464.17Z" transform="translate(-307.05 -387.38)"/><path class="cls-6" d="M354.24,460.71h-.34c-.26,0-.41,0-.45-.35a1.3,1.3,0,0,0-1.09-1.06,1.46,1.46,0,0,0-1.56.53,1.12,1.12,0,0,0,.17,1.51,3.83,3.83,0,0,0,1.28.67,12.09,12.09,0,0,1,1.49.63,2.42,2.42,0,0,1,1.4,2.44,2.55,2.55,0,0,1-1.58,2.26,3.55,3.55,0,0,1-3.75-.54A2.7,2.7,0,0,1,349,465c0-.27.06-.34.31-.31a1.4,1.4,0,0,0,.29,0,2.7,2.7,0,0,1,.7,0c.26.09.14.4.24.6a1.72,1.72,0,0,0,1.85,1,1.38,1.38,0,0,0,1.32-1.07,1.17,1.17,0,0,0-.49-1.27,5,5,0,0,0-1.38-.67,7,7,0,0,1-1.62-.74,2.39,2.39,0,0,1-.44-3.6,3,3,0,0,1,3-.93,2.61,2.61,0,0,1,2.12,1.84s0,0,0,0C355.07,460.7,355.07,460.71,354.24,460.71Z" transform="translate(-307.05 -387.38)"/><path class="cls-9" d="M402.65,463.78c0-1,0-1.87,0-2.77,0-.32.08-.45.41-.4s.76-.14.95.07.05.61.05.93c0,1.83,0,3.67,0,5.5,0,.29-.05.44-.38.39s-.74.14-1-.07-.08-.6-.07-.92a1.79,1.79,0,0,0-1.28-1.8c-.57-.24-1.16-.42-1.72-.72a2.8,2.8,0,0,1-1.54-2.32c-.11-1.1,0-2.22-.05-3.33,0-.2.07-.24.26-.25,1.21-.07,1.21-.08,1.21,1.14v1.83a1.87,1.87,0,0,0,1.18,1.84A12.7,12.7,0,0,1,402.65,463.78Z" transform="translate(-307.05 -387.38)"/><path class="cls-8" d="M357.7,490.1v1.28a9.11,9.11,0,0,1-1.28,0l-1.35-.2-.19-.08a7.71,7.71,0,0,1-5.52-6.73,4.37,4.37,0,0,1,1.33.31,6.36,6.36,0,0,0,4.34,5.09,3.56,3.56,0,0,0,1.33.28A4.62,4.62,0,0,0,357.7,490.1Z" transform="translate(-307.05 -387.38)"/><path class="cls-7" d="M364.73,484.37a5.74,5.74,0,0,0,0-1.31h1.35l1.27.21a7.7,7.7,0,0,1,5.74,6.79,3.78,3.78,0,0,1-1.33-.29,6.22,6.22,0,0,0-1.37-3.07,5.76,5.76,0,0,0-3-2,2.84,2.84,0,0,0-1.34-.31A6.1,6.1,0,0,0,364.73,484.37Z" transform="translate(-307.05 -387.38)"/><path class="cls-11" d="M350.69,484.69a4,4,0,0,0-1.33-.3,7.51,7.51,0,0,0-1.34,0v-1.3l1.33,0,1.27.23a7.7,7.7,0,0,1,5.74,6.78,3.56,3.56,0,0,1-1.33-.28,6.36,6.36,0,0,0-4.34-5.09Z" transform="translate(-307.05 -387.38)"/><path class="cls-10" d="M344.51,463.77c0,1.11,0,2.22,0,3.33,0,.29,0,.44-.38.4s-.82.15-1-.08-.06-.66-.06-1c0-1.95,0-3.89,0-5.83,0-.31.11-.4.37-.45,1.1-.21,1.1-.22,1.1.88Z" transform="translate(-307.05 -387.38)"/><path class="cls-2" d="M383,448.67c0,.3,0,.59,0,.88,0,.09,0,.21-.13.21s-.12-.12-.12-.21c0-.47,0-.94,0-1.42,0-.09,0-.2-.08-.25a.32.32,0,0,0-.31.07.9.9,0,0,0-.28.79c0,.12.09.33-.11.34s-.17-.2-.18-.34,0-.53-.19-.74a.31.31,0,0,0-.33-.12c-.16.05-.1.2-.1.32,0,.43,0,.86,0,1.29,0,.11,0,.28-.15.28s-.15-.16-.15-.28c0-.53,0-1.06,0-1.58s.23-.47.45-.33a1.07,1.07,0,0,0,1.29,0c.26-.15.47,0,.43.35A6.06,6.06,0,0,0,383,448.67Z" transform="translate(-307.05 -387.38)"/><path class="cls-10" d="M343.78,458.09c.73,0,.72,0,.73.74,0,.28-.06.4-.36.39a1.77,1.77,0,0,0-.65.09c-.39.14-.52,0-.46-.37a.62.62,0,0,0,0-.13C343,458.09,343,458.09,343.78,458.09Z" transform="translate(-307.05 -387.38)"/><path class="cls-2" d="M379.54,448.76a4.13,4.13,0,0,1,0-.5c0-.3,0-.53-.4-.47-.09,0-.17,0-.17-.13s.08-.11.15-.11h1.08c.07,0,.14,0,.15.1s-.06.15-.15.14c-.4-.06-.37.21-.36.47v1.24c0,.13,0,.28-.18.26s-.12-.16-.12-.26S379.54,449,379.54,448.76Z" transform="translate(-307.05 -387.38)"/><path class="cls-2" d="M364.29,449.63l-.08.06,0,0,.11,0Z" transform="translate(-307.05 -387.38)"/><path class="cls-2" d="M368,438.8l0,0,0,0Z" transform="translate(-307.05 -387.38)"/><path class="cls-1" d="M357.88,394.47a0,0,0,0,1,0,0h0l0,0Z" transform="translate(-307.05 -387.38)"/><path class="cls-12" d="M346.7,483.29A7.75,7.75,0,0,0,341,490.1a6.44,6.44,0,1,1,5.74-7.18A2.29,2.29,0,0,1,346.7,483.29Z" transform="translate(-307.05 -387.38)"/><path class="cls-12" d="M348,484.37a7.51,7.51,0,0,1,1.34,0,7.69,7.69,0,0,0,5.52,6.72l.19.08a6.41,6.41,0,0,1-12.8,0,7.74,7.74,0,0,0,5.69-6.46C348,484.58,348,484.48,348,484.37Z" transform="translate(-307.05 -387.38)"/><path class="cls-1" d="M373.09,490.07a7.7,7.7,0,0,0-5.74-6.79,6.43,6.43,0,1,1,5.9,6.83Z" transform="translate(-307.05 -387.38)"/><path class="cls-12" d="M364.73,484.37a6,6,0,0,1,1.34,0,7.67,7.67,0,0,0,5.67,6.76l.07,0a6.42,6.42,0,0,1-12.73.77,2.27,2.27,0,0,1-.07-.82,7.56,7.56,0,0,0,4.95-4A7.69,7.69,0,0,0,364.73,484.37Z" transform="translate(-307.05 -387.38)"/><path class="cls-13" d="M367.42,484.7a5.82,5.82,0,0,1,3,2,6.26,6.26,0,0,1,1.37,3.07A6.28,6.28,0,0,1,367.42,484.7Z" transform="translate(-307.05 -387.38)"/><path class="cls-12" d="M356.36,490.07a7.7,7.7,0,0,0-5.74-6.79,6.42,6.42,0,0,1,12.77-.52,5,5,0,0,1,.05.53,7.69,7.69,0,0,0-5.74,6.81A5,5,0,0,1,356.36,490.07Z" transform="translate(-307.05 -387.38)"/><path class="cls-14" d="M359.05,489.79a6.33,6.33,0,0,1,4.32-5.1A6.26,6.26,0,0,1,359.05,489.79Z" transform="translate(-307.05 -387.38)"/><path class="cls-13" d="M381.55,462.81a3.42,3.42,0,1,1-3.43-3.49A3.47,3.47,0,0,1,381.55,462.81Z" transform="translate(-307.05 -387.38)"/><path class="cls-13" d="M333.3,464.16c0-1.25,0-2.44,0-3.63,0-.34-.12-.8.05-1s.68-.06,1-.07a3,3,0,0,1,1,.08,1.6,1.6,0,0,1,1.24,1.16,1.7,1.7,0,0,1-.51,1.74,3.23,3.23,0,0,1-.8.52A10.46,10.46,0,0,0,333.3,464.16Z" transform="translate(-307.05 -387.38)"/><path class="cls-14" d="M325.53,464a3.91,3.91,0,0,0-3.24-1.06c-.18,0-.2-.08-.2-.22,0-.57,0-1.14,0-1.71a1.7,1.7,0,0,1,3.4-.09C325.58,461.94,325.53,463,325.53,464Z" transform="translate(-307.05 -387.38)"/><path class="cls-13" d="M311.47,464.17c0-1.53,0-3,0-4.42,0-.22,0-.32.29-.3a10.5,10.5,0,0,1,1.86.09,1.51,1.51,0,0,1,1.22,1.12,1.66,1.66,0,0,1-.46,1.72,3.57,3.57,0,0,1-.89.6A11.11,11.11,0,0,0,311.47,464.17Z" transform="translate(-307.05 -387.38)"/><path class="cls-13" d="M350.69,484.69a6.2,6.2,0,0,1,3.68,3.09,6.12,6.12,0,0,1,.66,2A6.36,6.36,0,0,1,350.69,484.69Z" transform="translate(-307.05 -387.38)"/></svg>