<svg id="Layer_1" data-name="Layer 1" xmlns="http://www.w3.org/2000/svg" viewBox="0 0 1920 466"><path d="M1053,847.9H459.08c.45-2.61-1.87-3.35-3.29-4.48-13.71-10.83-27.89-21-42.37-30.82a900.61,900.61,0,0,0-135.31-75.71c-50.84-22.8-103.27-40.55-158-51.23C80.43,677.93,40.51,674,.13,675q0-144.44-.1-288.88c0-3.42.68-4.09,4.1-4.09q955.89.15,1911.77,0c3.43,0,4.1.67,4.1,4.09q-.18,131.45-.1,262.9c-2-.68-3.06.87-4.21,2-37.81,36.7-81,65.95-127.3,90.61C1726.87,774.34,1662.23,799,1594,813.93c-35,7.69-70.33,13.91-106,18.24-27.42,3.33-54.88,5.87-82.45,6.54-31.45.76-62.9.5-94.35-1.5-22.57-1.43-45.11-3.14-67.56-5.56-29.88-3.23-59.6-7.62-89.25-12.56-50.15-8.34-99.87-18.76-149.26-30.7q-66.15-16-131.26-35.81c-5.09-1.56-10-3.8-15.58-4.42.08.86,0,1.3.15,1.45,3.3,2.88,7.5,4.2,11.21,6.38,33.87,20,68.92,37.7,104.4,54.58Q1013.52,829.32,1053,847.9ZM1385.2,533.27l-.38-.37c1-11.92,1.22-23.74-.67-35.69a112,112,0,0,0-34.8-65.68c-28.06-26.38-62-36.2-99.82-30.14-29.56,4.74-53.56,19.95-72,43.62-20,25.68-27.64,55-23.35,87,3.61,26.85,15.67,49.77,35.6,68.45,21.38,20,46.53,30.82,75.86,31.57,8.63.21,8.62,0,10.58-8.29a49.2,49.2,0,0,1,1.29-4.8c1.27-3.62.35-5.17-3.77-5-7.3.3-14.64.36-21.86-1.1-48-9.73-80.73-49.15-80.79-98a89,89,0,0,1,11.55-44.79c19.26-33.68,48.16-51.72,87.41-52,25.47-.2,47.7,8.69,66,26,25.94,24.45,35.58,54.8,29.93,90-.35,2.17-1.14,3.27-3.08,3.87-21.48,6.58-39.78,18.08-54.53,35.12-16.48,19-26.42,41-28.32,66-1.66,21.84,1.87,42.81,12,62.73a117.22,117.22,0,0,0,38.19,43.84c24.85,17.2,53,23.59,82.92,19.09a112.81,112.81,0,0,0,67.35-35.54c22.9-24.58,33.19-53.49,31.49-86.88-.13-2.6-.29-4.3-3.67-4.52a68.83,68.83,0,0,1-12.19-2.26c-2.84-.72-2.74,0-2.57,2.58.65,9.77.72,19.54-1.2,29.27-5.27,26.7-18.79,47.88-41.42,63.17-23.37,15.8-49,20.62-76.34,14.65a94.83,94.83,0,0,1-53.82-32.79c-19.47-23.39-26.37-50.37-21.37-80,4-23.52,15.49-43.25,34.15-58.49,6.89-5.62,14.18-10.62,23.33-14-.72,1.63-1,2.54-1.5,3.38-7.11,13.29-16.51,24.88-29.42,32.52-11.74,7-14.84,18.18-19.33,30.5,9.73-3.64,18.11-7.42,25.82-12.55,21.68-14.44,37.26-33.79,46.35-58.24a4.62,4.62,0,0,1,4.25-3.46,94.42,94.42,0,0,1,31.64,1.12c22.84,4.86,42,15.91,57.06,34.05,4.05,4.88,6.62,11.32,13.47,13.48,5.06,1.59,10.06,3.35,15.09,5,.95.31,2,.68,2.85-.07,1-.92,0-1.85-.41-2.67-10.47-23.05-26.34-41.28-48.31-54.07C1433.06,536.39,1409.85,531.63,1385.2,533.27Zm389.17-133.2c-22.88-.85-43.86,5.76-62.67,18.1-27.14,17.81-44.62,42.81-51.27,74.89a108.16,108.16,0,0,0-2.38,26.19c.32,7.9.47,7.87,8.2,8.87a22.62,22.62,0,0,1,5.85,1.11c5.25,2.2,5.42-1.05,4.71-4.48-1.94-9.37-.53-18.62,1.27-27.68,5.39-27.25,19.94-48.6,43.25-63.72,20.82-13.49,43.71-17.9,68.17-14.3s44.58,15.14,60.28,33.92c17.38,20.8,24.83,45,22.27,72.15-2.76,29.33-16.08,52.71-39.67,70.09-21.46,15.82-45.65,21.58-72.05,17.82-24.75-3.52-45.8-14.46-60.93-34.29-7.83-10.27-17.13-16.13-29.18-18.74-.9-.2-1.9-1.19-2.77-.3-1.1,1.13.06,2.17.52,3.14a123.69,123.69,0,0,0,12.24,21.1c20.9,28,48.64,44.45,83.4,47.83a111.87,111.87,0,0,0,67.64-14.39c44-25.14,66.91-74.19,57.43-123.47C1878.23,439.66,1829,398.65,1774.37,400.07ZM1746.2,635.24a47.41,47.41,0,0,0,0,7.07c1.53,9.71.27,19.31-1.91,28.64-5.66,24.14-18.35,43.6-38.82,58.2-23.93,17.08-50.26,22.32-78.44,16.14-46.1-10.11-80.31-52.85-76.27-103,2.6-32.44,17.69-57.43,44.43-75.12,10.27-6.79,10.9-17.47,16.34-27.44a32.14,32.14,0,0,0-3.45.69c-21.5,8.19-39.29,21.26-53,39.89-20.27,27.63-27.46,58.57-20.65,91.83,7.94,38.73,30.65,66.77,66.7,83.48,22.41,10.38,46,12.78,70,7.87,32.09-6.57,57.3-23.81,75.16-51.46,13.68-21.2,19.4-44.5,18.39-69.6-.12-3-.88-4.39-4.24-4.66C1755.84,637.39,1751.17,636.16,1746.2,635.24ZM1522,400c-5.35.25-10.62.26-16,.93a109.71,109.71,0,0,0-62.5,29.42c-26.91,25.1-39.52,56.41-37.62,93.37.15,2.92,1.11,4.4,4.08,4.29,3.87-.15,7.58.79,11.28,1.68,2.57.61,3.5.49,3.15-2.78-1.06-9.77-1.1-19.66.9-29.3,4.65-22.44,15.2-41.58,33-56.43,24.42-20.35,52.43-27.2,83.39-21.26,22.07,4.24,40.52,15.2,55.1,32.51,20.13,23.9,27,51.55,21.67,81.86-4.72,26.72-19,48-41.7,63a31.58,31.58,0,0,0-12.31,15c-1.2,2.91-2.43,5.82-3.39,8.81-.37,1.13-1.8,2.5-.45,3.62,1.14.95,2.49,0,3.72-.49a109.6,109.6,0,0,0,39-25.37c27-27.4,38.38-60.29,33.61-98.57a110.06,110.06,0,0,0-29.22-62.56C1584.72,412.93,1556.14,399.85,1522,400Zm129.18,132.9c-2.82,1-6.7-1.63-8.05,2.36a109.6,109.6,0,0,0-3.12,13.52c-.38,1.85,0,3.52,2.56,2.87,6.83-1.76,13.68-.32,20.27.71,27.11,4.27,49.26,17.35,65.32,39.74a27.56,27.56,0,0,0,12.69,9.7,76,76,0,0,0,9.43,3.13c1.67.44,3.72,2.19,5.12.61,1.66-1.89-.87-3.51-1.47-5.27a22.09,22.09,0,0,0-1.55-3.12C1730.58,556.76,1696.5,535.87,1651.15,532.87Zm-237.3,26.29c9.09,20.78,21.65,37.59,39.28,50.42,20.94,15.24,44.25,23.06,70.27,22.5,2.82-.06,4.24-.82,4.61-3.82a53.51,53.51,0,0,1,2.26-10.66c1.13-3.28-.14-3.63-2.89-3.66-6.47-.07-12.9.25-19.39-.77-28-4.41-50.27-17.93-66.72-41-1.31-1.84-2.27-4.06-4.57-5.14A96.73,96.73,0,0,0,1413.85,559.16Z" transform="translate(0 -382)" style="fill:#fefefe"/><path d="M.13,675c40.38-1,80.3,3,119.93,10.69,54.78,10.68,107.21,28.43,158.05,51.23A900.61,900.61,0,0,1,413.42,812.6c14.48,9.78,28.66,20,42.37,30.82,1.42,1.13,3.74,1.87,3.29,4.48Q232,847.9,5,848c-3.82,0-5-.43-5-4.73C.2,787.17.13,731.07.13,675Z" transform="translate(0 -382)" style="fill:#acacac"/><path d="M1053,847.9q-39.46-18.66-78.9-37.33C938.63,793.69,903.58,776,869.71,756c-3.71-2.18-7.91-3.5-11.21-6.38-.16-.15-.07-.59-.15-1.45,5.53.62,10.49,2.86,15.58,4.42Q939,772.5,1005.19,788.39c49.39,11.94,99.11,22.36,149.26,30.7,29.65,4.94,59.37,9.33,89.25,12.56,22.45,2.42,45,4.13,67.56,5.56,31.45,2,62.9,2.26,94.35,1.5,27.57-.67,55-3.21,82.45-6.54,35.64-4.33,70.92-10.55,106-18.24,68.2-15,132.84-39.59,194.36-72.35,46.3-24.66,89.49-53.91,127.3-90.61,1.15-1.11,2.18-2.66,4.21-2q0,97.2.1,194.42c0,3.75-.85,4.59-4.6,4.59Q1484.21,847.85,1053,847.9Z" transform="translate(0 -382)" style="fill:#adadad"/><path d="M1385.2,533.27c24.65-1.64,47.86,3.12,69.33,15.62,22,12.79,37.84,31,48.31,54.07.37.82,1.38,1.75.41,2.67-.8.75-1.9.38-2.85.07-5-1.66-10-3.42-15.09-5-6.85-2.16-9.42-8.6-13.47-13.48-15-18.14-34.22-29.19-57.06-34.05a94.42,94.42,0,0,0-31.64-1.12,4.62,4.62,0,0,0-4.25,3.46c-9.09,24.45-24.67,43.8-46.35,58.24-7.71,5.13-16.09,8.91-25.82,12.55,4.49-12.32,7.59-23.55,19.33-30.5,12.91-7.64,22.31-19.23,29.42-32.52.45-.84.78-1.75,1.5-3.38-9.15,3.34-16.44,8.34-23.33,14-18.66,15.24-30.18,35-34.15,58.49-5,29.67,1.9,56.65,21.37,80a94.83,94.83,0,0,0,53.82,32.79c27.36,6,53,1.15,76.34-14.65,22.63-15.29,36.15-36.47,41.42-63.17,1.92-9.73,1.85-19.5,1.2-29.27-.17-2.61-.27-3.3,2.57-2.58a68.83,68.83,0,0,0,12.19,2.26c3.38.22,3.54,1.92,3.67,4.52,1.7,33.39-8.59,62.3-31.49,86.88a112.81,112.81,0,0,1-67.35,35.54c-29.91,4.5-58.07-1.89-82.92-19.09a117.22,117.22,0,0,1-38.19-43.84c-10.13-19.92-13.66-40.89-12-62.73,1.9-25.07,11.84-47,28.32-66,14.75-17,33-28.54,54.53-35.12,1.94-.6,2.73-1.7,3.08-3.87,5.65-35.23-4-65.58-29.93-90-18.33-17.27-40.56-26.16-66-26-39.25.32-68.15,18.36-87.41,52a89,89,0,0,0-11.55,44.79c.06,48.82,32.81,88.24,80.79,98,7.22,1.46,14.56,1.4,21.86,1.1,4.12-.17,5,1.38,3.77,5a49.2,49.2,0,0,0-1.29,4.8c-2,8.34-2,8.5-10.58,8.29-29.33-.75-54.48-11.53-75.86-31.57-19.93-18.68-32-41.6-35.6-68.45-4.29-32,3.38-61.29,23.35-87,18.4-23.67,42.4-38.88,72-43.62,37.83-6.06,71.76,3.76,99.82,30.14a112,112,0,0,1,34.8,65.68c1.89,12,1.71,23.77.67,35.69-.1.21-.2.42-.31.63Z" transform="translate(0 -382)" style="fill:#adadad"/><path d="M1774.37,400.07c54.59-1.42,103.86,39.59,114.31,93.84,9.48,49.28-13.45,98.33-57.43,123.47a111.87,111.87,0,0,1-67.64,14.39c-34.76-3.38-62.5-19.86-83.4-47.83a123.69,123.69,0,0,1-12.24-21.1c-.46-1-1.62-2-.52-3.14.87-.89,1.87.1,2.77.3,12,2.61,21.35,8.47,29.18,18.74,15.13,19.83,36.18,30.77,60.93,34.29,26.4,3.76,50.59-2,72.05-17.82,23.59-17.38,36.91-40.76,39.67-70.09,2.56-27.19-4.89-51.35-22.27-72.15-15.7-18.78-35.86-30.33-60.28-33.92s-47.35.81-68.17,14.3c-23.31,15.12-37.86,36.47-43.25,63.72-1.8,9.06-3.21,18.31-1.27,27.68.71,3.43.54,6.68-4.71,4.48a22.62,22.62,0,0,0-5.85-1.11c-7.73-1-7.88-1-8.2-8.87a108.16,108.16,0,0,1,2.38-26.19c6.65-32.08,24.13-57.08,51.27-74.89C1730.51,405.83,1751.49,399.22,1774.37,400.07Z" transform="translate(0 -382)" style="fill:#adadad"/><path d="M1746.2,635.24c5,.92,9.64,2.15,14.39,2.54,3.36.27,4.12,1.68,4.24,4.66,1,25.1-4.71,48.4-18.39,69.6-17.86,27.65-43.07,44.89-75.16,51.46-24,4.91-47.64,2.51-70-7.87-36-16.71-58.76-44.75-66.7-83.48-6.81-33.26.38-64.2,20.65-91.83,13.66-18.63,31.45-31.7,53-39.89a32.14,32.14,0,0,1,3.45-.69c-5.44,10-6.07,20.65-16.34,27.44-26.74,17.69-41.83,42.68-44.43,75.12-4,50.14,30.17,92.88,76.27,103,28.18,6.18,54.51.94,78.44-16.14,20.47-14.6,33.16-34.06,38.82-58.2,2.18-9.33,3.44-18.93,1.91-28.64A47.41,47.41,0,0,1,1746.2,635.24Z" transform="translate(0 -382)" style="fill:#adadad"/><path d="M1522,400c34.17-.12,62.75,13,85.8,37.74A110.06,110.06,0,0,1,1637,500.27c4.77,38.28-6.65,71.17-33.61,98.57a109.6,109.6,0,0,1-39,25.37c-1.23.48-2.58,1.44-3.72.49-1.35-1.12.08-2.49.45-3.62,1-3,2.19-5.9,3.39-8.81a31.58,31.58,0,0,1,12.31-15c22.7-15,37-36.31,41.7-63,5.34-30.31-1.54-58-21.67-81.86-14.58-17.31-33-28.27-55.1-32.51-31-5.94-59,.91-83.39,21.26-17.82,14.85-28.37,34-33,56.43-2,9.64-2,19.53-.9,29.3.35,3.27-.58,3.39-3.15,2.78-3.7-.89-7.41-1.83-11.28-1.68-3,.11-3.93-1.37-4.08-4.29-1.9-37,10.71-68.27,37.62-93.37A109.71,109.71,0,0,1,1506,400.9C1511.35,400.23,1516.62,400.22,1522,400Z" transform="translate(0 -382)" style="fill:#adadad"/><path d="M1651.15,532.87c45.35,3,79.43,23.89,101.2,64.25a22.09,22.09,0,0,1,1.55,3.12c.6,1.76,3.13,3.38,1.47,5.27-1.4,1.58-3.45-.17-5.12-.61a76,76,0,0,1-9.43-3.13,27.56,27.56,0,0,1-12.69-9.7c-16.06-22.39-38.21-35.47-65.32-39.74-6.59-1-13.44-2.47-20.27-.71-2.54.65-2.94-1-2.56-2.87a109.6,109.6,0,0,1,3.12-13.52C1644.45,531.24,1648.33,533.85,1651.15,532.87Z" transform="translate(0 -382)" style="fill:#adadad"/><path d="M1413.85,559.16A96.73,96.73,0,0,1,1436.7,567c2.3,1.08,3.26,3.3,4.57,5.14,16.45,23.12,38.7,36.64,66.72,41,6.49,1,12.92.7,19.39.77,2.75,0,4,.38,2.89,3.66a53.51,53.51,0,0,0-2.26,10.66c-.37,3-1.79,3.76-4.61,3.82-26,.56-49.33-7.26-70.27-22.5C1435.5,596.75,1422.94,579.94,1413.85,559.16Z" transform="translate(0 -382)" style="fill:#adadad"/><path d="M1385.2,533.27l-.69.26c.11-.21.21-.42.31-.63Z" transform="translate(0 -382)" style="fill:#fefefe"/></svg>