<svg id="Layer_1" data-name="Layer 1" xmlns="http://www.w3.org/2000/svg" viewBox="0 0 1920.23 448.52"><path d="M-319,1972c40.39-1,80.31,3,119.94,10.69,54.79,10.69,107.23,28.44,158.07,51.25a900.1,900.1,0,0,1,135.33,75.74c14.48,9.78,28.66,20,42.37,30.84,1.43,1.12,3.75,1.86,3.29,4.48q-227.07,0-454.14.1c-3.82,0-5-.44-5-4.73C-318.93,2084.24-319,2028.12-319,1972Z" transform="translate(319.13 -1696.57)" style="fill:#acacac"/><path d="M734,2145q-39.45-18.67-78.91-37.35c-35.48-16.89-70.54-34.62-104.4-54.6-3.71-2.19-7.92-3.5-11.22-6.39-.16-.14-.07-.59-.15-1.45,5.53.63,10.5,2.87,15.58,4.42q65.08,19.93,131.28,35.83c49.4,11.94,99.12,22.37,149.27,30.72,29.66,4.93,59.39,9.33,89.26,12.56,22.46,2.42,45,4.13,67.57,5.56,31.46,2,62.91,2.26,94.36,1.5,27.58-.67,55-3.21,82.46-6.54,35.65-4.33,70.93-10.55,106-18.25,68.2-15,132.86-39.6,194.38-72.38,46.3-24.67,89.5-53.93,127.32-90.64,1.15-1.12,2.18-2.67,4.21-2q0,97.24.1,194.5c0,3.75-.85,4.59-4.6,4.59Q1165.25,2144.94,734,2145Z" transform="translate(319.13 -1696.57)" style="fill:#adadad"/><path d="M1066.23,1830.24c24.66-1.64,47.87,3.12,69.35,15.62,22,12.8,37.84,31,48.31,54.1.37.81,1.38,1.75.41,2.66-.8.75-1.9.39-2.85.08-5-1.67-10-3.42-15.09-5-6.86-2.16-9.43-8.6-13.47-13.49-15-18.15-34.23-29.2-57.08-34.07a94.4,94.4,0,0,0-31.64-1.12,4.65,4.65,0,0,0-4.25,3.46c-9.09,24.47-24.67,43.83-46.36,58.27-7.7,5.13-16.08,8.91-25.82,12.56,4.5-12.33,7.59-23.57,19.33-30.52,12.92-7.64,22.32-19.24,29.43-32.53.45-.84.78-1.75,1.5-3.38-9.16,3.34-16.44,8.34-23.34,14-18.66,15.25-30.17,35-34.14,58.51-5,29.68,1.9,56.67,21.37,80.07a94.78,94.78,0,0,0,53.82,32.81c27.36,6,53,1.14,76.35-14.66,22.63-15.3,36.15-36.49,41.42-63.2,1.92-9.73,1.85-19.5,1.21-29.28-.18-2.62-.27-3.3,2.57-2.58a68.83,68.83,0,0,0,12.19,2.26c3.38.22,3.53,1.92,3.67,4.52,1.7,33.41-8.59,62.33-31.5,86.91a112.78,112.78,0,0,1-67.36,35.56c-29.91,4.5-58.07-1.89-82.93-19.1a117.43,117.43,0,0,1-38.19-43.85c-10.13-19.93-13.66-40.91-12-62.76C963,1911,973,1889,989.46,1870c14.76-17,33.06-28.54,54.54-35.13,1.94-.6,2.73-1.7,3.08-3.88,5.65-35.24-4-65.6-29.93-90.06-18.34-17.28-40.56-26.17-66-26-39.26.32-68.15,18.37-87.43,52.06a89.22,89.22,0,0,0-11.55,44.81c.07,48.84,32.83,88.28,80.81,98,7.21,1.46,14.56,1.4,21.86,1.1,4.12-.17,5,1.38,3.77,5a45.63,45.63,0,0,0-1.28,4.79c-2,8.34-2,8.51-10.59,8.29-29.34-.74-54.49-11.53-75.87-31.57-19.94-18.69-32-41.62-35.6-68.49-4.3-32,3.37-61.31,23.34-87,18.41-23.69,42.42-38.9,72-43.64,37.83-6.07,71.77,3.75,99.83,30.14a112.17,112.17,0,0,1,34.81,65.71c1.88,12,1.7,23.78.66,35.71l-.3.63Z" transform="translate(319.13 -1696.57)" style="fill:#adadad"/><path d="M1455.45,1697c54.6-1.42,103.88,39.61,114.32,93.88,9.49,49.3-13.45,98.37-57.43,123.52a111.84,111.84,0,0,1-67.65,14.4c-34.76-3.38-62.51-19.87-83.42-47.85a124.45,124.45,0,0,1-12.24-21.11c-.46-1-1.62-2-.52-3.14.87-.89,1.88.1,2.78.3,12,2.61,21.34,8.47,29.18,18.75,15.14,19.83,36.18,30.78,60.94,34.3,26.4,3.76,50.6-2,72.06-17.82,23.58-17.39,36.91-40.78,39.67-70.13,2.56-27.19-4.89-51.36-22.27-72.17-15.7-18.79-35.86-30.35-60.29-33.94s-47.36.81-68.17,14.31c-23.32,15.12-37.87,36.48-43.26,63.74-1.8,9.07-3.21,18.32-1.27,27.7.71,3.42.54,6.68-4.71,4.47a23,23,0,0,0-5.85-1.11c-7.74-1-7.89-1-8.2-8.87a107.74,107.74,0,0,1,2.38-26.2c6.65-32.09,24.13-57.1,51.27-74.92C1411.58,1702.75,1432.57,1696.13,1455.45,1697Z" transform="translate(319.13 -1696.57)" style="fill:#adadad"/><path d="M1427.27,1932.25c5,.92,9.65,2.15,14.4,2.54,3.36.27,4.12,1.68,4.24,4.66,1,25.11-4.71,48.42-18.4,69.63-17.85,27.66-43.07,44.91-75.16,51.48-24,4.91-47.65,2.52-70.06-7.87-36-16.72-58.77-44.77-66.71-83.52-6.81-33.27.38-64.22,20.65-91.86,13.67-18.64,31.46-31.72,53-39.91a32.14,32.14,0,0,1,3.45-.69c-5.44,10-6.07,20.66-16.34,27.45-26.75,17.7-41.83,42.7-44.44,75.15-4,50.16,30.18,92.92,76.28,103,28.18,6.18,54.51.94,78.45-16.14,20.47-14.61,33.17-34.07,38.82-58.22,2.19-9.34,3.44-19,1.92-28.66A46.07,46.07,0,0,1,1427.27,1932.25Z" transform="translate(319.13 -1696.57)" style="fill:#adadad"/><path d="M1203,1696.88c34.18-.11,62.75,13,85.81,37.76a110,110,0,0,1,29.22,62.58c4.77,38.3-6.65,71.21-33.61,98.61a109.69,109.69,0,0,1-39,25.39c-1.23.47-2.58,1.43-3.72.49-1.34-1.13.09-2.5.45-3.63,1-3,2.19-5.9,3.4-8.81a31.51,31.51,0,0,1,12.3-15c22.71-15,37-36.34,41.71-63.06,5.34-30.32-1.54-58-21.68-81.9-14.57-17.31-33-28.28-55.1-32.51-31-6-59,.9-83.4,21.26-17.82,14.85-28.37,34-33,56.46-2,9.64-2,19.53-.91,29.31.36,3.27-.58,3.39-3.14,2.77-3.7-.88-7.42-1.82-11.28-1.68-3,.12-3.93-1.36-4.08-4.28-1.9-37,10.71-68.3,37.62-93.41a109.64,109.64,0,0,1,62.51-29.44C1192.4,1697.15,1197.67,1697.14,1203,1696.88Z" transform="translate(319.13 -1696.57)" style="fill:#adadad"/><path d="M1332.22,1829.83c45.34,3,79.43,23.91,101.21,64.28a21.12,21.12,0,0,1,1.54,3.13c.61,1.76,3.14,3.37,1.47,5.26-1.39,1.59-3.45-.16-5.12-.6a78.37,78.37,0,0,1-9.43-3.14,27.49,27.49,0,0,1-12.69-9.7c-16.06-22.4-38.21-35.48-65.32-39.75-6.59-1-13.45-2.48-20.28-.72-2.54.65-2.93-1-2.56-2.87a108.4,108.4,0,0,1,3.13-13.53C1325.51,1828.21,1329.4,1830.82,1332.22,1829.83Z" transform="translate(319.13 -1696.57)" style="fill:#adadad"/><path d="M1094.89,1856.14a96.89,96.89,0,0,1,22.85,7.82c2.3,1.08,3.26,3.3,4.57,5.14,16.45,23.13,38.7,36.66,66.73,41.07,6.49,1,12.92.7,19.39.77,2.75,0,4,.38,2.89,3.67a53.41,53.41,0,0,0-2.26,10.65c-.37,3-1.79,3.76-4.61,3.82-26,.56-49.34-7.26-70.28-22.5C1116.53,1893.74,1104,1876.93,1094.89,1856.14Z" transform="translate(319.13 -1696.57)" style="fill:#adadad"/></svg>