<svg xmlns="http://www.w3.org/2000/svg" viewBox="0 0 680 208.25"><g id="Layer_2" data-name="Layer 2"><g id="Layer_1-2" data-name="Layer 1"><path d="M680,143.41c0,20.8,0,41.59,0,62.38,0,1.94-.38,2.46-2.42,2.46q-240.29-.09-480.56-.06-97.3,0-194.61.06c-2.07,0-2.41-.55-2.41-2.48q.11-54,.05-108a6.16,6.16,0,0,0,2.79.62c6.46-.13,12.81.88,19.16,1.88a3.35,3.35,0,0,0,3.21-.7C16.41,98.67,8.33,97,.05,97.22q0-47.52,0-95C0,.36.36,0,2.18,0Q340,.08,677.82,0c1.82,0,2.18.36,2.18,2.17q-.09,70.36,0,140.71a33.36,33.36,0,0,1-12.05-1.16,16.84,16.84,0,0,0-9.89.37,29,29,0,0,1-9.86,1.66c-12.6.11-25.23,1-37.74-1.35a32.31,32.31,0,0,0-17.5.23,14,14,0,0,1-9.33,0,9.61,9.61,0,0,0-6-.6,28.93,28.93,0,0,1-9.72.79,13.09,13.09,0,0,0-10.26-.82,24.38,24.38,0,0,1-12.06.27c-1.21-.26-2.34-1-3.85-.84,1.21,2.42,3.27,2.84,5.4,3a34.52,34.52,0,0,0,8.94-.81c3-.55,6.08-1.38,9.1,0,2.46,2.52,5.51,1.43,8.23,1,3-.49,6-1.09,8.86,0,4.55,1.7,8.74,1,13.06-.73s8.66-1.32,13-.25a4.6,4.6,0,0,0,2.08.2A110.36,110.36,0,0,0,627.84,145c7.06-.12,14.11-.29,21.13.79a9.68,9.68,0,0,0,5.5-.4c5.4-2.46,10.84-1.71,16.35-.63C674,145.39,677.14,145.43,680,143.41Zm-112.13,4.1c.82.1,1.46-.25,2.61-1-1.26.22-2-.12-2.55.51a11.52,11.52,0,0,1-4.36-1.67,4.51,4.51,0,0,0-5.25,0c1.71.16,3.2.14,4.53,1A8.15,8.15,0,0,0,567.82,147.51ZM137,63.68a3,3,0,0,0-1.86,2c-.38.9-.34,1.89.71,2.13.9.22,1.08-.82,1.07-1.44,0-1.55.67-2.22,2.16-2.21l11.38-.59,3-.19a50.12,50.12,0,0,0,12.36,0c2.94.11,3.49.79,2.84,3.74s-2.4,5.41-3.65,8.09a12.54,12.54,0,0,1-1.2,1.74A3.09,3.09,0,0,1,160.73,78c-1.06-.09-1.17-1.2-1.3-2a6.53,6.53,0,0,0-3-4.22,3.77,3.77,0,0,0-4.89.21c-1.36,1.14-2.67,2.62-1.62,4.56.6,1.09.19,2,.18,3,0,.7-.85,1.94,1.11,1.86a5.82,5.82,0,0,1,2.21.5c.07,2,2.4,2.88,2.26,4.91-.1,1.49.82,2.46,1.89,3.3a36.86,36.86,0,0,1,6,6.56c-4.47.71-9,1.37-13.14-1a18,18,0,0,0-7.78-2.16c-2.05-.16-3.8-.62-2.51-3.41a8.64,8.64,0,0,0,.17-2.62c.18-1.88-.37-3.39-2.27-4a4.22,4.22,0,0,0-4.73,1.49c-1.69,2-1,4.19-.85,6.34.08.84.43,1.5-.8,1.71a12.14,12.14,0,0,0-7.26,4.43c-2.11,2.46-5.58,3.06-7.62,5.61-2.56.38-4.72,2.34-7.63,1.56a23.74,23.74,0,0,0-11.3.14,21.75,21.75,0,0,1-8.16.26c-3.52-.56-4.55-1.53-5.19-5.1-.3-1.67-1.11-2.74-2.91-2.9-1.14-.09-2.28-.24-3.42-.4-2.34-.32-3.42,1-3.87,3a9.84,9.84,0,0,0,.66,6c.83,2,0,2.32-1.65,2.27a56.83,56.83,0,0,1-16.88-2.72,9.83,9.83,0,0,1-4.09-2.27c-1.29-1.41-2.24-.9-3,.09s-1.58,1-2.69.71q-6.6-1.42-13.24-2.6a6,6,0,0,0-3.84.09c5.89,1.21,11.37,2.36,16.87,3.43,1.14.22,1.75.41,2,1.83s1,3.24,3.42,2.6a6.3,6.3,0,0,1,4.17.51c5.12,2.37,10.92,2.6,16,5.37a19.11,19.11,0,0,1,7.76,7.67c.9,1.62,1,2.83-1.48,2.87-3.42.06-5.7,1.58-6.75,5.09s-2.64,7.09-3.92,10.65c-.71,2-1.12,4.2-4.12,3.37-.18-.06-.65.2-.65.3.07,2.53-2.12,2-3.48,2.6-.66.28-1.44.39-1.44,1.29s.75,1.18,1.39,1.4a13.31,13.31,0,0,0,6,.71c1.17.84,2.53.4,3.8.53,1.88.18,2.61-.69,2.13-2.5-.43-1.64-.06-3.28-.06-4.92,1.69-2.31,4.08-4.4,4.89-7,1-3.16,2.07-4.34,5.18-3,2.53,2.46,5.69,2.57,8.64,1.55a13.15,13.15,0,0,1,10.44.46c4.55,1.94,9,4.26,14.07,4.62a8.08,8.08,0,0,1,4.28,1.78l-1,.15a4.74,4.74,0,0,0-4.19,3.82,4.58,4.58,0,0,0,1.57,4.74,4.46,4.46,0,0,0,5.6.62,6.56,6.56,0,0,1,3.29-.62c.51,0,1.18-.06,1.33-.63s-.51-.88-1-1c-1.82-.55-.93-2-1-3.11s.83-.88,1.54-.77c2.54,2.25,5.16,4.37,8.72,4.73a2.1,2.1,0,0,0,2.41-1.19c.51-1.21-.23-2-1.13-2.64a19.05,19.05,0,0,0-5.73-3.09c0-1.07,1.06-1.29,1.63-1.9,2.67-2.85,5.58-5.51,7.28-9.13A19.27,19.27,0,0,0,139.83,120a11.35,11.35,0,0,1,.72-5.4c.91-2.65,2.46-5.07,2.8-7.91,2.54-5.42,2.54-5.42,8.22-5.19.6,0,1.2.26,1.8.32a20.06,20.06,0,0,0,10.82-1.42,1.33,1.33,0,0,0,.45.08l.68,1.52,0,1.42a1.56,1.56,0,0,0-1.17,1.22c-.71.73-.39,1.65-.44,2.49-.24,4,.55,8-.53,11.9-.59,1.32.74,2.91-.35,4.07-3.1,3.28-5,7.49-8.56,10.42a7.55,7.55,0,0,0-2.75,6c0,1.21.35,2.36-.32,3.37-1.33,2-.9,4-.42,6.13.19.83.51,1.59,1.43,1.68a2.19,2.19,0,0,0,2-1.09,7.21,7.21,0,0,0,1.08-2.68,17.29,17.29,0,0,1,3.35-7.13q4.47-5.58,9-11.14c.61-.17,1.51,0,1.47-1-.1-2.86,1.43-5.3,2-8l.56-.63c.51.2.51.7.64,1.11.78,2.6.74,5.29.94,8,.32,4.18-1.45,8.07-1.58,12.17l0,0a4,4,0,0,0-.94,3.16c.46,2.52-1,2.92-2.85,3.06-1.05.09-2.41,0-2.49,1.28-.07,1.11,1.19,1.65,2.15,2.05a5.16,5.16,0,0,0,2,.39c7.35-.06,6.81,1,7.08-6.63,1.68-.28.62-1.13.38-1.82,1.21-4.49,2.64-8.94,2.52-13.67l.08-.53c4.38-2.12,4.38-2.12,6.19,2.41.23.57.27,1.21.54,1.75,1.7,3.36,3,7,6,9.53,1.42,4.25,4.29,6.9,7.51,6.91a6.72,6.72,0,0,0,4.26-.41,9.44,9.44,0,0,0-3.78-2.86,11.25,11.25,0,0,1-3.29-3c-1.31-1.63-2.21-3.61-4.05-4.79-2.26-4.19-3.38-8.8-4.86-13.28.38-2.15,3-3.67,4.79-2.66a8.83,8.83,0,0,0,4.24,1.29,22.14,22.14,0,0,0,8.44,1.94c3.44.79,7,1,10.45,1.78,5.46,1.25,9.11,3.56,10.83,8.84,1.11,3.89-.71,7-2.61,10.11-1.06,3.83-4,5.48-8,6.18,4.68,3.41,7.54,1.56,11.92-2.33,1.27-.22,1.34.93,1.75,1.61.78,1.29,1.68,2.21,3.52,1.67-2.86-2.18-1.31-4.63-.63-7,1.66,1.42,3.57,2.64,4.92,4.31,2.06,2.54,3.46,3.1,6,1.67,1.25-.71,1.47-1.41.2-2.26-1.61-1.07-3.25-2.1-4.86-3.16-.43-.29-1.36-.46-.46-1.27,1.58.58,3.67.72,4.41-.5.83-1.37-1.13-2.48-2.12-3.49a46.83,46.83,0,0,1-7-9.17,25.89,25.89,0,0,0,1-7.56,24.17,24.17,0,0,1,2.74-11.64c2.38-4.54,5.22-8.78,6-14,.11-.75.28-1.71,1.19-1.91,1.18-.26,1.64.83,2.26,1.54s.87,1.33.18,2.11c-2.9,3.34-3.69,7.56-4.73,11.64a11.8,11.8,0,0,0,.41,8.05,5.48,5.48,0,0,1,.39,3.49c-.8,5.15,2.12,8.94,7.28,9.28,1.93.12,1.85,1,1.7,2.37-.39,3.31-.77,6.63-1,9.95-.13,2.05.49,3.94,2.65,4.73a6.29,6.29,0,0,0,6.24-1.24c1.51-1.27.88-3.41.17-5.17a9.8,9.8,0,0,1-.66-5.9c.43-2.13.7-4.54-.56-6.48-1.55-2.4.8-5-.58-7.28a2,2,0,0,1,.77-.59,13,13,0,0,0,3.81-2.55c-.57,6.83,1.71,13.44.64,20.22-.59,3.75,6.18,10.31,9.95,10a5,5,0,0,0,3.55-2.08A19.74,19.74,0,0,0,281,139a86.79,86.79,0,0,0-3.12-39.46c-.16-.5-.23-.93.18-1.11.84-.35.73-2,2.15-1.53a2.58,2.58,0,0,1,2.1,2.29,34.91,34.91,0,0,0,6.54,16,6.15,6.15,0,0,1,1.15,3.75c0,6.67,1.42,13.16,2.64,19.67l0,0a11.09,11.09,0,0,0-4.12,5.32c-.72,1.69.92,2.68,1.42,4a9.68,9.68,0,0,1,.32,1.8c.16,1,.21,2.12,1.23,2.77.15.66.45,1.14,1.24,1,.92.25,1.83.58,2.76.75,1.1.19,2.4.62,3.22-.39s-.36-2.06-.71-3.06c0-.11.12-.27.2-.42l2.15,1,.13.15.2,0,.39.39c-.8,1.08.67,2.84-1.72,3.66h26.74l.63,0c4.32.89,8.15-1.05,12.15-2.05l5.92,0,14.84-.53c.52.84,2.36.34,2.14,1-1,3.07,1.44,1.56,2.24,1.66,10.64,1.33,21.26,0,31.89-.46,1.77-.08,3.72.42,5.31-.93-1-.81-2.88.68-3.18-1.05-.59-3.4-1.72-6.74-1.4-10.27h-.05l1.94.48a1.94,1.94,0,0,1,.89,1.2c1,3.24,2.86,3.76,5.42,1.53a12.29,12.29,0,0,0,2.7-3.56c1-1.83,1.75-3.83,3.63-5,.69,4.5-2.09,8.2-2.91,12.36-.33,1.69-2.34,3.42-1.07,5s3.48.59,5.29.63c.18,0,.35-.06.53-.07,2.09-.12,2.91-1.1,2.58-3.27-.84-5.6-1.09-11.16,1.4-16.52a24.77,24.77,0,0,0,1.15-4.58l.38-.42c2.67-.59,5.59-.84,7.32-3.27,2.8-3.93,7.07-5.87,10.9-8.36,2-1.32,4.36-2.17,5.54-4.7,2.08,1.86,2.38,4.4,3.8,6.3,1.72,2.32,1.4,4.12-.83,6-2.62,2.21-4.26,5-5.94,8-2.79,4.94-5.82,9.84-11.06,12.78-2.17,1.21-2.38,3.93-.28,5.13a18.1,18.1,0,0,0,10.65,2.58c1.81-.15,2.5-1.47,2.94-3a2.31,2.31,0,0,0-1.3-3.08c-1.19-.52-1.08-1.43-1-2.43.34-3.84,3.76-5.41,5.78-8.52l.61,2.49c1,9.9,11.11,17,20.89,14.74,5.93-1.39,9.91-5.09,12.56-10.42a211.43,211.43,0,0,1,32.39-2.14c2.71-.15,5.42-.21,8.12-.48,4.07-.42,8.13-1,12.19-1.47l4.65-.67c4.46-1,9-1.42,13.32-3.11a16.47,16.47,0,0,0,2.34-.32,86.49,86.49,0,0,0,17.93-6.92c.83-.44,1.6-1.17,2.65-.47,3.68,2.45,8.51,3,11.36,6.84.27.36,1.14.28,1.74.4a65.67,65.67,0,0,0,10.2.93,13.93,13.93,0,0,0,4.71.35c-1.82-1-2.85-1.72-4.18-1.87-.94-.46-1.92-.86-2.83-1.37-3.76-2.12-8.17-1.51-12.11-2.87l-6.88-4.29c-.22-1.14.76-1.46,1.4-2,1.67-1.38,3.64-2.39,5-4.12,3.9-2.33,7.12-5.53,10.56-8.45,3.44,1.13,6.86,2.32,10.32,3.39,6.22,1.93,12.46,2.48,18.71,0a8.45,8.45,0,0,1,3.33-.79,10.21,10.21,0,0,0,7.52-2.65,19.66,19.66,0,0,0,7.39,4.33,3.68,3.68,0,0,1,.92.5c4.11,4.46,8.13,9,13.59,12,1,.55,1.1,1.73.67,2.84a3,3,0,0,0,.31,3.49c.51-3.55,1.78-2.25,3.14-.87,1,1,1.93,2.3,3.58,2.87a16.93,16.93,0,0,0-1.14-4.05c-.45-1-1.47-2.62-.31-3.25s1.53,1.34,2.37,2,.9,2.33,2.29,1.53c1.2-.7.2-1.92.08-2.89-.06-.48-.56-.89-.77-1.37-.88-2.08-3-2.93-4.41-4.43a125.51,125.51,0,0,0-10.15-10,3,3,0,0,1-1.31-3.55c.9-3.74-.28-5.56-3.58-6.27-3,.43-5.26-1-7.4-2.81,0,0-.16,0-.25,0-1.63-.64-3.36-2-4.87-1.78-4.83.68-9.93.85-13.9,4.42a7.77,7.77,0,0,1-3.26,1.72c-2.05.55-3.81.85-5.25-1.47a5.12,5.12,0,0,0-5.11-2.28c-3.43.49-5.77-1.2-7.87-3.44a17.35,17.35,0,0,0-4.56-3.59,8.8,8.8,0,0,1-3.88-3.85,16,16,0,0,0-7.31-7.06c-2.53-1.26-5.09-2.46-7.69-3.56-1.41-.6-2.55-1.3-2.44-3A1.46,1.46,0,0,0,569,77.32a20.72,20.72,0,0,1-6.88-1.76,3.77,3.77,0,0,0-2.84.06c-1.11.45-1.6,1-.27,2a91.6,91.6,0,0,0,8.59,5.73,48.59,48.59,0,0,1,18.57,19c-6.34-4.11-13.27-4.67-20.43-3.93-2.82.28-5.12-1-7.63-2-1.65-.68-1.58-1.22-1.17-2.34.33-.9,1-1.67,1.27-2.58a8,8,0,0,0-1.31-7.16c-1.47-1.93-3.71-2.09-6-1.42s-3.06,2.23-3.23,4.29a16.41,16.41,0,0,0,.32,4.73c.69,3.4-.55,5-3.88,5.37a8.38,8.38,0,0,0-5.22,2.29,29.19,29.19,0,0,1-4.71,3.38c-.45.3-.89,1-1.58.38-1.67-1.6-3.4-2.1-5.37-.45-.17.15-.8-.17-1.17-.36-4.09-2.07-8.25-4-10.6-8.35a8.56,8.56,0,0,0-3.37-3.3c-2.73-2.44-6.19-2.66-9.56-3.13-.7,0-1.4,0-2.09,0a3.4,3.4,0,0,0-3.46,3c-.33,1.69,1.06,2.41,2.32,3.08.76.41,1.53.79,2.3,1.18-2.1,1.59-4.86.86-7,1.82-3.54,1.57-5.08-.87-7-2.8a2.29,2.29,0,0,1-.48-2.23c.24-.93,1-.29,1.55-.25a1.23,1.23,0,0,0,1.26-.71c1.17-1.9,2.58-3.57,2.77-6.06.3-3.87-2.17-7.31-6.06-7-4.22.3-8,2.17-11.81,5a25,25,0,0,1,2.87.24c.77.17,1.74.46,1.47,1.49s-1.08,1-1.9.53a2.37,2.37,0,0,0-2.49,0c-4.42,2.2-8.93,4.24-12.62,7.63.6-3,1.33-6,3.71-8.26,3.87-3.66,3.73-6.45-.43-9.83a10.91,10.91,0,0,0-1.71-1.26c-1.2-.67-1.62-1.57-.91-2.78,1.8-3-.11-6.36.88-9.46.09-.28-.5-.91-.9-1.19-1.41-1-6.2-.68-7.61.47-2.33,1.9-2.9,4.18-1.72,7,.71,1.74.69,2.88-1.59,3.46-4.34,1.11-8.09,3.42-10.18,7.44-1.92,3.7-5.22,6.38-6.92,10.18a3.17,3.17,0,0,1-1.51,1.45c-3.48,1.51-5.71,4.36-8,7.19-.33.42-.66.84-1.3.69.67-4.75.65-9.41-1.62-13.81-1.62-5.76,1-10.38,4-14.86,1-1.48,1.65-1,2.1.55.62,2.14.6,4.5,2.07,6.37-1.8,2.08-3.23,4.45-5.1,6.52a3.3,3.3,0,0,0,1.78-.63,2.3,2.3,0,0,1,2.43-.47c1.62.71-1,.94-.17,1.88s-.75.43-.88.83c-.18.58-1.19.86-.35,1.86.69.84,1.18.65,1.7.2,1.49-1.31,3.29-2.47,3.12-4.86a.75.75,0,0,0,.08-1.18l0-5.19c.28-.36.16-.51-.27-.47h0c.13-.78.32-1.56.38-2.35.36-4.81,1.13-9.66-1.28-14.22-1.23-2.23-3.3-1.61-5.14-1.34s-3.39,1-5.11,1.28c-4.68.86-4.69.82-5.62-3.83a5.78,5.78,0,0,0-5-5.06c-3.05-.53-6,.56-7.19,2.76-1.37,2.48-1.12,5.31-1.35,8-.09,1.07,0,1.55-1.06,2.14-4.53,2.54-8.74,5.37-9.14,11.35a3.79,3.79,0,0,1-2.42,3.44c-2.2-3.11-5-5.68-7.57-8.48-.71-.77-1.67-1.43-1.46-2.66.41-2.5-1.16-3.32-3.14-3.68-2.14-.39-2.12-1.31-.75-2.59,1.07-1,1.78-2.09,1.08-3.49-.92-1.81-1.69-3.87-3.12-5.17s-4.2-.53-6-2c-.07-.06-.52.43-.84.57-2.46,1.08-4.26,3.74-7.47,3.07-.64-.13-.4.52-.55.87-1.1,2.57-.14,5.12.07,7.65s.42,5-2.38,6.76c-2.5,1.57-5.37,1.46-7.05-1-2.21-3.17-4.6-2.94-6.86.22-.92,1.28,1.07,1.71.15,2.69a16.74,16.74,0,0,1-5.59,4.36c-1.31.54-1.93-1.5-3.06-2.11-.54-.3-1-.87-1.55-1-3.53-.81-3.68-3.35-3.41-6.25.34-3.71-1.74-6.76-4.89-7a11.06,11.06,0,0,0-5.74.62c-.92-.72.1-1,.33-1.41,3.09-6,8-11,9.1-18,.46-2.87.77-5.79,1.48-8.6,1.07-4.29,0-8.1-2-11.77-.36-.65-.87-1.44-1.86-1.11a1.83,1.83,0,0,0-1.3,1.8c-.13,1.8-.31,3.6-.47,5.51-1.09-.17-1.34-1.58-2.83-1.31,1,1.66,1.7,3.46,3,4.64,1.71,1.61,1.56,3,.72,4.9-1.34,3-3.84,5.56-4.07,9.1a10.4,10.4,0,0,1-2.56,5.69c-2.4,3.1-6.18,4.88-8.06,8.5a1.52,1.52,0,0,1-2.19.72c1.42-1.87.7-3.69-.28-5.4a25.51,25.51,0,0,1-2.8-6.44c-.47-1.84-1.85-1.45-3.14-.6-.86.57-1.32,1.53-2.5,1.83-5,1.27-6.89,8.08-3.36,11.79.73.77,1.61,1.4,1.43,2.64-1.12.39-.9,1.25-.49,1.93,1.24,2.08.22,3.15-1.59,3.95a5.52,5.52,0,0,0-3,2.7,37.64,37.64,0,0,1-5.93,6.73c-1.07.91-2.43,1.51-3.14,2.81l0,0h-3.14c-2.06-1.68-3.5-4.2-6.41-4.73-2.78-1.65-3.05-4.44-2.94-7.19.09-2.54-.1-4.85-2.06-6.7-.31-1.89-.63-3.77-.94-5.66a91.58,91.58,0,0,0-1.58-11.88,27.37,27.37,0,0,0-2.49-8.24c-.52-.94-1.18-1.89-2.41-1.62a2.59,2.59,0,0,0-1.92,2.55,17.79,17.79,0,0,0,.6,5.72c.93,4,1.83,8.11,3.72,11.86.18,1.92,1.65,3.47,1.61,5.47a12.63,12.63,0,0,0-8.77.66c-4.05,1.62-5.69,4.58-4.64,8.83.44,1.77-.4,3.27-.36,4.75.08,3.16-2.51,2.11-3.78,3a21.08,21.08,0,0,0-3.83,2.68l0,0a.54.54,0,0,0-.49.09,18.8,18.8,0,0,0-9.14,10.47,10.94,10.94,0,0,1-3.1-4.67c1-1.43.62-2.73-.27-4-1.65.81-.48,3.52-3.09,3.78-2.45.25-2.53-2.47-4.85-2.83,3,5.17-1.92,6.59-4.05,9.4-.43.55-.88,1.08-1.33,1.63-1.3.19-1.75,1.3-2.4,2.21-1.17,0-1.4-.87-1.64-1.73-1.31-4.76-1.28-9.68-1.59-14.55-.1-1.54.46-3.12-.82-4.52-2.21-2.42-2.09-3,1.34-5.56-2.4.78-2.51-.63-3-1.65-1-2.26-2.83-2.72-5-2.31s-3.53,1.67-3.53,3.95a4.8,4.8,0,0,1-3.69,5c-1.69.53-3.17,2-5.16,1.35-1.05,2.82-4.42,3.61-5.51,6.52s-2.74,5.87-4.18,8.77a4,4,0,0,0-.61,2.27c.55,3.76-2,6.2-3.72,9-1.61-5-3-10.07-6.51-14.26-2.65-3.17-2.59-3.38,1.17-5.13a5.44,5.44,0,0,0,3.52-4.86c.57-4.7-.45-9.22-.79-13.82-.05-.6-.33-1.14-.86-1.2-1.52-.16-2.72-1.33-4.65-.51a18.18,18.18,0,0,1-7.33,1.41c-4.4-.08-8.81.28-13.22.45A66.68,66.68,0,0,0,137,63.68ZM585.85,148.3c1.49.92,3,1.24,4.38.48a24.31,24.31,0,0,1,17-2.84s.11-.13.16-.19c-3.91-1.89-9.91-2-13.65.21C591.25,147.42,588.83,148.67,585.85,148.3Zm59.4-.57c5.94,1.68,10.25.89,16.09-3C656.12,146.54,650.89,148.24,645.25,147.73Z" transform="translate(0)" style="fill:#fefefe"/><path d="M680,143.41c-2.81,2-6,2-9.13,1.37-5.51-1.08-11-1.83-16.35.63a9.68,9.68,0,0,1-5.5.4c-7-1.08-14.07-.91-21.13-.79a110.36,110.36,0,0,1-17.42-1.14c-1-.48-1-1,0-1.48,12.51,2.32,25.14,1.46,37.74,1.35a29,29,0,0,0,9.86-1.66,16.84,16.84,0,0,1,9.89-.37A33.36,33.36,0,0,0,680,142.88Z" transform="translate(0)" style="fill:#2f89c5"/><path d="M.05,97.22c8.28-.19,16.36,1.45,25.16,2.33a3.35,3.35,0,0,1-3.21.7c-6.35-1-12.7-2-19.16-1.88a6.16,6.16,0,0,1-2.79-.62Z" transform="translate(0)" style="fill:#85a3d2"/><path d="M292.67,138.6c-1.22-6.51-2.61-13-2.64-19.67a6.15,6.15,0,0,0-1.15-3.75,34.91,34.91,0,0,1-6.54-16,2.58,2.58,0,0,0-2.1-2.29c-1.42-.43-1.31,1.18-2.15,1.53-.41.18-.34.61-.18,1.11A86.79,86.79,0,0,1,281,139a19.74,19.74,0,0,1-3.77,9.22,5,5,0,0,1-3.55,2.08c-3.77.35-10.54-6.21-9.95-10,1.07-6.78-1.21-13.39-.64-20.22a13,13,0,0,1-3.81,2.55,2,2,0,0,0-.77.59c1.38,2.32-1,4.88.58,7.28,1.26,1.94,1,4.35.56,6.48a9.8,9.8,0,0,0,.66,5.9c.71,1.76,1.34,3.9-.17,5.17a6.29,6.29,0,0,1-6.24,1.24c-2.16-.79-2.78-2.68-2.65-4.73.21-3.32.59-6.64,1-9.95.15-1.38.23-2.25-1.7-2.37-5.16-.34-8.08-4.13-7.28-9.28a5.48,5.48,0,0,0-.39-3.49,11.8,11.8,0,0,1-.41-8.05c1-4.08,1.83-8.3,4.73-11.64.69-.78.38-1.47-.18-2.11s-1.08-1.8-2.26-1.54c-.91.2-1.08,1.16-1.19,1.91-.74,5.22-3.58,9.46-6,14a24.17,24.17,0,0,0-2.74,11.64,25.89,25.89,0,0,1-1,7.56c-1.17-1.07-1.62-2.66-2.83-3.74-3-2.7-4.47-6-3.66-10.13a43.44,43.44,0,0,0,1.09-9.58c.07-1.69,2.52-.87,2.65-2.5l0-.67h0a.9.9,0,0,0,1.07-.53h0l.55-.55,0,0c1.2.57,1.92,2.18,3.68,1.55,2.12-.76,3.58-4.25,2.72-6.35-1-2.42-2.68-4.53-3.3-7.13a1.12,1.12,0,0,1,.09-.36c.88-.41,1.75-.83,2.64-1.23a67.71,67.71,0,0,1,43.58-4.53c1.81,1.07,4,1,5.87,1.86.82.38,1-.48,1.45-.78a108.25,108.25,0,0,1,8.67,44.42l-.06.69C296.54,134.25,295.41,137.06,292.67,138.6Z" transform="translate(0)" style="fill:#dddb02"/><path d="M319.81,58a11.06,11.06,0,0,1,5.74-.62c3.15.29,5.23,3.34,4.89,7-.27,2.9-.12,5.44,3.41,6.25.56.13,1,.7,1.55,1,1.13.61,1.75,2.65,3.06,2.11a16.74,16.74,0,0,0,5.59-4.36c.92-1-1.07-1.41-.15-2.69,2.26-3.16,4.65-3.39,6.86-.22,1.68,2.41,4.55,2.52,7.05,1,2.8-1.76,2.6-4.09,2.38-6.76s-1.17-5.08-.07-7.65c.15-.35-.09-1,.55-.87,3.21.67,5-2,7.47-3.07.32-.14.77-.63.84-.57,1.77,1.46,4.45.61,6,2s2.2,3.36,3.12,5.17c.7,1.4,0,2.51-1.08,3.49-1.37,1.28-1.39,2.2.75,2.59,2,.36,3.55,1.18,3.14,3.68-.21,1.23.75,1.89,1.46,2.66,2.55,2.8,5.37,5.37,7.57,8.48,0,.32,0,.64.07,1l-2.13,6.28a2.42,2.42,0,0,0-.12.35c-1.12.26-2.25.48-3.35.79-6.73,1.94-13.73,2.25-20.59,3.36-1.54-1.28-1.46-3.08-1.56-4.83-.14-2.21-3.65-3.78-5.66-2.86-3.19,1.47-4.22,4.53-5.87,7.15l-1.66-.1c-1.21-.21-2.43-.43-3.65-.62-6.7-1-13.35-2.31-19.68-4.85a65.81,65.81,0,0,0-5.91-23.82C319.81,58.33,319.81,58.18,319.81,58Z" transform="translate(0)" style="fill:#f0d401"/><path d="M585.84,136.62c-.6-.12-1.47,0-1.74-.4-2.85-3.87-7.68-4.39-11.36-6.84-1-.7-1.82,0-2.65.47a86.49,86.49,0,0,1-17.93,6.92,16.47,16.47,0,0,1-2.34.32c-4.31-2.7-9-4.73-13.14-7.8-3.71-2.75-6.7-6.23-10.22-9.15l-.64-1.1c0-1,.08-2.08.11-3.12,2.87-.48,5.72-1.07,8.6-1.4,1.41-.16,1.75-1,1.89-2,.1-.81.73-1.67-.16-2.45-1.11-1-1.76.19-2.54.55-3.83,1.77-6.09.61-6.58-3.52a3.84,3.84,0,0,0-2.3-3.26c-3.58-1.81-7.08-3.84-11.13-4.5.15-1.36-.52-2.53-.84-3.79-.37-1.52-1.45-2.94-.79-4.64a8.56,8.56,0,0,1,3.37,3.3c2.35,4.33,6.51,6.28,10.6,8.35.37.19,1,.51,1.17.36,2-1.65,3.7-1.15,5.37.45.69.65,1.13-.08,1.58-.38a29.19,29.19,0,0,0,4.71-3.38,8.38,8.38,0,0,1,5.22-2.29c3.33-.35,4.57-2,3.88-5.37a16.41,16.41,0,0,1-.32-4.73c.17-2.06,1-3.73,3.23-4.29,1.26-.08,1.52.65,1.72,1.76a73.52,73.52,0,0,0,3.42,13c-2.27.67-4.54,1.32-6.79,2-.67.2-1.41.51-1.43,1.36,0,1.12.92.73,1.53,1,2.79,1,5.57.12,8.36,0a84,84,0,0,0,11,18c2,2.48,4.58,4.52,6,7.44l6.88,4.29c.78,2.06,2.93,2.47,4.43,3.66C587,136.15,586.85,136.4,585.84,136.62Z" transform="translate(0)" style="fill:#d30c53"/><path d="M479.15,145c-2.65,5.33-6.63,9-12.56,10.42-9.78,2.3-19.93-4.84-20.89-14.73,0-.88,0-1.76.07-2.64,4.18-3.8,5.48-9.71,9.79-13.43.46-.4.52-1.26.76-1.91l0,0,.51-.42c0-.2.06-.4.08-.6a26.45,26.45,0,0,1,7-.77c4.32.31,4.32.28,5.22-4a3.5,3.5,0,0,1,.36-.69c4,1,7.61,3.18,11.72,3.83v0l.45.53a25.1,25.1,0,0,1,1.71,6.48c-.42,1.68-.07,3.74-2.73,4.09s-6.15-.14-4.61,4.51c.11.35-.25.83-.33,1.26-.29,1.55-.67,3.09-.82,4.65-.32,3.53-.2,3.61,3.34,3.34a5.06,5.06,0,0,0,.77-.18Z" transform="translate(0)" style="fill:#e55320"/><path d="M65.38,150.85a13.31,13.31,0,0,1-6-.71c-.64-.22-1.4-.53-1.39-1.4s.78-1,1.44-1.29c1.36-.57,3.55-.07,3.48-2.6,0-.1.47-.36.65-.3,3,.83,3.41-1.38,4.12-3.37,1.28-3.56,2.84-7,3.92-10.65s3.33-5,6.75-5.09c2.48,0,2.38-1.25,1.48-2.87a19.11,19.11,0,0,0-7.76-7.67c-5-2.77-10.84-3-16-5.37a6.3,6.3,0,0,0-4.17-.51c-2.39.64-3.15-1-3.42-2.6s-.86-1.61-2-1.83c-5.5-1.07-11-2.22-16.87-3.43a6,6,0,0,1,3.84-.09q6.65,1.19,13.24,2.6c1.11.24,1.86.39,2.69-.71s1.7-1.5,3-.09a9.83,9.83,0,0,0,4.09,2.27,56.83,56.83,0,0,0,16.88,2.72c1.7,0,2.48-.32,1.65-2.27a9.84,9.84,0,0,1-.66-6c.45-2,1.53-3.36,3.87-3,1.14.16,2.28.31,3.42.4,1.8.16,2.61,1.23,2.91,2.9.64,3.57,1.67,4.54,5.19,5.1a21.75,21.75,0,0,0,8.16-.26,23.74,23.74,0,0,1,11.3-.14c2.91.78,5.07-1.18,7.63-1.56,1.15.35,2.45.5,2.69,2q-2,1.22-4,2.41c-.48,0-1.09-.22-.87.67l-.15.09-5.08.19A76.58,76.58,0,0,0,95,109.9c-2.55.56-3.72,2.67-2.48,4.93a30.72,30.72,0,0,0,4.79,6.78c-.51,1.15-1.72,1.45-2.64,2.08-4.64,3.2-9.45,6.16-13.34,10.32-3.11-1.37-4.2-.19-5.18,3-.81,2.58-3.2,4.67-4.89,7A32,32,0,0,0,65.38,150.85Z" transform="translate(0)" style="fill:#0460a6"/><path d="M631.63,112.91a10.25,10.25,0,0,1-7.53,2.65,8.45,8.45,0,0,0-3.33.79c-6.25,2.46-12.49,1.91-18.71,0-3.46-1.07-6.88-2.26-10.32-3.39l-6.83-3c-3.17-2.16-6.22-4.52-10.13-5.3-2.51-.49-5-1.21-7.47-1.83-.22-1.58-1.56-2.75-1.6-4.4,7.16-.74,14.09-.18,20.43,3.93a48.59,48.59,0,0,0-18.57-19A91.6,91.6,0,0,1,559,77.64c-1.33-1-.84-1.57.27-2a3.77,3.77,0,0,1,2.84-.06A20.72,20.72,0,0,0,569,77.32a1.46,1.46,0,0,1,1.53,1.74c-.11,1.72,1,2.42,2.44,3,2.6,1.1,5.16,2.3,7.69,3.56a16,16,0,0,1,7.31,7.06,8.8,8.8,0,0,0,3.88,3.85,17.35,17.35,0,0,1,4.56,3.59c2.1,2.24,4.44,3.93,7.87,3.44a5.12,5.12,0,0,1,5.11,2.28c1.44,2.32,3.2,2,5.25,1.47a7.77,7.77,0,0,0,3.26-1.72c4-3.57,9.07-3.74,13.9-4.42,1.51-.22,3.24,1.14,4.87,1.78C635.65,106.63,633,109.42,631.63,112.91Z" transform="translate(0)" style="fill:#922281"/><path d="M179.07,100.69c1.67-2.83,4.27-5.27,3.72-9a4,4,0,0,1,.61-2.27c1.44-2.9,3-5.75,4.18-8.77s4.46-3.7,5.51-6.52c2,.61,3.47-.82,5.16-1.35a4.8,4.8,0,0,0,3.69-5c0-2.28,1.35-3.54,3.53-3.95s4,.05,5,2.31c.46,1,.57,2.43,3,1.65-3.43,2.58-3.55,3.14-1.34,5.56,1.28,1.4.72,3,.82,4.52.31,4.87.28,9.79,1.59,14.55.24.86.47,1.74,1.64,1.73-5.35,5.83-10.75,11.64-14.6,18.64-.76,1.4-1.54,1.59-3,1A126.08,126.08,0,0,0,181,108.25a4.1,4.1,0,0,0-.54-5.11c-.56-.67-1-1.43-1.53-2.14A1.15,1.15,0,0,0,179.07,100.69Zm15.37-1.35c-.41-2-.31-3.48,2.12-3.51,1.37,0,.83-1.06.55-1.72A15.51,15.51,0,0,1,196,86.59c.17-1.73.76-3.4.48-5.2-.09-.65-.1-1.54-.71-1.42-1.52.29-3.55-.18-4.44,1.21-2,3.11-4.83,5.9-4.86,10a2,2,0,0,1-.91,1.79c-2.14,1.51-2.61,4-3.74,6.2A14.37,14.37,0,0,1,194.44,99.34Z" transform="translate(0)" style="fill:#98bf22"/><path d="M424,97.76c.64.15,1-.27,1.3-.69,2.27-2.83,4.5-5.68,8-7.19a3.17,3.17,0,0,0,1.51-1.45c1.7-3.8,5-6.48,6.92-10.18,2.09-4,5.84-6.33,10.18-7.44,2.28-.58,2.3-1.72,1.59-3.46-1.18-2.87-.61-5.15,1.72-7,1.41-1.15,6.2-1.49,7.61-.47.4.28,1,.91.9,1.19-1,3.1.92,6.44-.88,9.46-.71,1.21-.29,2.11.91,2.78a10.91,10.91,0,0,1,1.71,1.26c4.16,3.38,4.3,6.17.43,9.83-2.38,2.26-3.11,5.22-3.71,8.26-2,2.28-4.27,4.44-4.72,7.7l-.48.06c-6.27-1.21-12.6-1.13-18.94-1.13-1,0-2.12.47-3-.48,1-2.09,2.66-3.88,2.72-6.37h.35v-.22l-.31.27c-1.09.53-1.52,1.64-2.24,2.49-1.74,2.07-3.37,4.28-6.12,5.16-2.6-.73-5.06.48-7.6.59C422.4,99.63,423.62,99,424,97.76Z" transform="translate(0)" style="fill:#f09406"/><path d="M457.4,100.31c.45-3.26,2.68-5.42,4.72-7.7,3.69-3.39,8.2-5.43,12.62-7.63a2.37,2.37,0,0,1,2.49,0c.82.48,1.65.41,1.9-.53s-.7-1.32-1.47-1.49a25,25,0,0,0-2.87-.24c3.83-2.79,7.59-4.66,11.81-5,3.89-.28,6.36,3.16,6.06,7-.19,2.49-1.6,4.16-2.77,6.06a1.23,1.23,0,0,1-1.26.71c-.54,0-1.31-.68-1.55.25a2.29,2.29,0,0,0,.48,2.23c1.92,1.93,3.46,4.37,7,2.8,2.17-1,4.93-.23,7-1.82.63-.46,2.6,1.74,2.06-1,.89-.63,1.72-1,2,.56a21,21,0,0,1,.13,2.1,5,5,0,0,1-2.41,2.54,71,71,0,0,0-6.39,3.65c-1.67,1-1.51,2.41-.65,3.86,1.05,1.79,1.71,0,2.39-.39a16.76,16.76,0,0,1,6.48-2.74,1.86,1.86,0,0,1,2,1.33C509,110,512,114.43,514.76,119c-2.26.29-4.25,1.37-6.35,2.12h-.57c-3.51-3.08-7.57-5.32-11.58-7.66-.86-.5-2.11-.6-2.28-1.94.9-1.43,2.17-2.87-.3-4.25-.44,1.31-.86,2.52-1.28,3.74h-2c-.47-1.29.91-2.46.23-3.86l-3.93,1.33-2.83-.66c1.77-1.72,4.23-2,6.31-3.15,1.37-.73,1.62-1.2.08-2a23.86,23.86,0,0,1-7.85-6.19c-.3-.38-.71-1.08-1.24-.74-2.67,1.75-6,1.75-8.75,3.42,1.33.22,2.62.14,3.9.24a32.91,32.91,0,0,1,4.19.55c4.65,1,5.52,3.37,2.68,7.32A115.66,115.66,0,0,0,457.4,100.31Z" transform="translate(0)" style="fill:#e55320"/><path d="M445.77,138c0,.88,0,1.76-.07,2.64l-.61-2.5c-2,3.11-5.44,4.68-5.78,8.52-.09,1-.2,1.91,1,2.43a2.31,2.31,0,0,1,1.3,3.08c-.44,1.51-1.13,2.83-2.94,3A18.1,18.1,0,0,1,428,152.58c-2.1-1.2-1.89-3.92.28-5.13,5.24-2.94,8.27-7.84,11.06-12.78,1.68-3,3.32-5.77,5.94-8,2.23-1.87,2.55-3.67.83-6-1.42-1.9-1.72-4.44-3.8-6.3-1.18,2.53-3.51,3.38-5.54,4.7-3.83,2.49-8.1,4.43-10.9,8.36-1.73,2.43-4.65,2.68-7.32,3.27a33.76,33.76,0,0,1,1.06-7.28l0-.19a3.19,3.19,0,0,0,2-3.38c-.05-.83-1.54-.88-2.5-.95-1.17-1-2.74-1.72-2.76-3.62,1.2-.3,2.38-.64,3.59-.89a103.28,103.28,0,0,1,23.91-2.19c4.31.12,8.6.64,12.91,1,.51,2.81,3.09,5.6.11,8.47,0,.2-.05.4-.08.6l-.51.42,0,0C450.45,123.77,445.44,131,445.77,138Z" transform="translate(0)" style="fill:#f09406"/><path d="M181,108.25a126.08,126.08,0,0,1,17.61,5.51c1.41.58,2.19.39,3-1,3.85-7,9.25-12.81,14.6-18.64.65-.91,1.1-2,2.4-2.21,1,.14,1.57-.59,2.27-1.09,3.6-2.56,7.07-5.36,11.32-6.86a10.94,10.94,0,0,0,3.1,4.67,4.17,4.17,0,0,1,.61,2.69,1.12,1.12,0,0,0-.09.36c-5.46,2.11-9.87,5.8-14.19,9.57-5.45,4.75-9.49,10.66-13.35,16.7l-5.72-2.58c-1.25-.55-2.2-.65-2.84,1-.79,2-2,3.87-2.55,6a8.83,8.83,0,0,1-4.24-1.29c-1.82-1-4.41.51-4.79,2.66l-8-2.06c-.83-3.59-4.27-5.32-5.86-9-1,2.46-1.84,4.37-2.64,6.27l-.56.63-.95-.14c1.66-3.94,3.94-7.69,3.71-12.2C176.28,107.12,178.58,108.24,181,108.25Z" transform="translate(0)" style="fill:#c4d683"/><path d="M390,77.62c0-.33-.05-.65-.07-1a3.79,3.79,0,0,0,2.42-3.44c.4-6,4.61-8.81,9.14-11.35,1.07-.59,1-1.07,1.06-2.14.23-2.67,0-5.5,1.35-8,1.21-2.2,4.14-3.29,7.19-2.76a5.78,5.78,0,0,1,5,5.06c.93,4.65.94,4.69,5.62,3.83,1.72-.32,3.38-1,5.11-1.28s3.91-.89,5.14,1.34c-.47.38-1,.72-1.42,1.14a102.74,102.74,0,0,1-27.68,19.26c-.86.4-1.66,1.08-2.72.74-.11-.49,0-1.17-.64-1.31s-.92.37-1.07.92-.37,1.36-.56,2l-4.21,1.43C392.81,80.33,392.28,78.26,390,77.62Z" transform="translate(0)" style="fill:#f7b803"/><path d="M393.65,82.15l4.21-1.43a6.45,6.45,0,0,1-1.09,2.94c-.35.73-1.43,1.5-.17,2.18a1.85,1.85,0,0,0,2.86-.93c.71-1.87,1.62-3.76.67-5.84,1.06.34,1.86-.34,2.72-.74a102.74,102.74,0,0,0,27.68-19.26c.43-.42,1-.76,1.42-1.14,2.41,4.56,1.64,9.41,1.28,14.22-.06.79-.25,1.57-.38,2.35-.75.53-1.23,1.48-2.31,1.51-1.47-1.87-1.45-4.23-2.07-6.37-.45-1.57-1.09-2-2.1-.55-3,4.48-5.66,9.1-4,14.86-.56-.78-1.08-.75-1.91-.22a139,139,0,0,1-18.88,9.7l-3.65,1.09c-2.1-2.14-4.5-.21-6.75-.4-3.77-.33-5.37-2.24-4.19-5.8.44-1.32,1.07-2.61.78-4.07a2.42,2.42,0,0,1,.12-.35A20.26,20.26,0,0,0,393.65,82.15Z" transform="translate(0)" style="fill:#fbd990"/><path d="M179.07,100.69a1.15,1.15,0,0,1-.11.31l-5.27-1.13a2.68,2.68,0,0,0-2.18-2.64c-1.65-.37-2-1.37-1.74-3-1.43,2.48-4.12,1.56-6,2.67a1,1,0,0,1-.17-.24,36.86,36.86,0,0,0-6-6.56c-1.07-.84-2-1.81-1.89-3.3.14-2-2.19-2.92-2.26-4.91a5.82,5.82,0,0,0-2.21-.5c-2,.08-1.11-1.16-1.11-1.86,0-1,.42-1.89-.18-3-1-1.94.26-3.42,1.62-4.56a3.77,3.77,0,0,1,4.89-.21,6.53,6.53,0,0,1,3,4.22c.13.84.24,2,1.3,2A3.09,3.09,0,0,0,163.84,77a12.54,12.54,0,0,0,1.2-1.74c1.25-2.68,3-5.15,3.65-8.09s.1-3.63-2.84-3.74a78.47,78.47,0,0,0-12.36,0l-3,.19c0-.27,0-.54-.08-.82,4.41-.17,8.82-.53,13.22-.45A18.18,18.18,0,0,0,171,60.91c1.93-.82,3.13.35,4.65.51.53.06.81.6.86,1.2.34,4.6,1.36,9.12.79,13.82a5.44,5.44,0,0,1-3.52,4.86c-3.76,1.75-3.82,2-1.17,5.13C176.05,90.62,177.46,95.68,179.07,100.69Zm-6.54-35.07c-.57,3.62-.72,7.28-2.41,10.67C172.9,76,174.29,70.06,172.53,65.62Z" transform="translate(0)" style="fill:#3ea8da"/><path d="M359.68,153l-14.84.53c.36-3.77,2.12-6.52,5.73-8,1.7-.68,3.38-1.45,4.42-3.43-1.69-.12-2.27,2.2-3.83.89.94-2.46,2.95-4.12,4.63-6a116.76,116.76,0,0,1,40.57-29l1-.14a8.11,8.11,0,0,0-.37,2.29c.22,1.73,2,2.67,3,1.56,1.54-1.6,3.22-3.31,2.67-5.92l1.05-.58,5.38-1.43c-.64,4.24-1.42,8.44-3.78,12.14a5.14,5.14,0,0,0-.48,3,29.42,29.42,0,0,0-7.41,3.33c-.46-2.11.39-4.08.89-6.16-2.95.46-3.64,2-2.82,4.49a11.08,11.08,0,0,1,.29,2.09c-3.17,1.83-6.33,3.68-9.51,5.49a3.48,3.48,0,0,0-2,2.56,63.21,63.21,0,0,1,.17-14.39,18.47,18.47,0,0,1-7.45,4.23,7.6,7.6,0,0,0-5.14,4.23,3.3,3.3,0,0,1-2.74,2.24c-.9.09-1.64.45-1.22,1.52.65,1.69-.1,3.07-.69,4.56-1,2.44-2.27,4.74-2.71,7.42a6.08,6.08,0,0,1-3.4,4.45,31.6,31.6,0,0,0-10.52,7.66c3.37-.93,6.23-.54,9.08-.14A1.42,1.42,0,0,0,359.68,153Z" transform="translate(0)" style="fill:#f8e790"/><path d="M319.81,58c0,.14,0,.29,0,.43-1-.13-2,.56-2.92-.47-1.28-1.38-2.9-.43-4.2,0-1.54.56.18,1.55.05,2.34a6.6,6.6,0,0,1-.63,2.26c-1.24,2.18-2.38,4.21,0,6.51.88.86-.26,2.87,1.13,3.58,2.4,1.22,2.32,3.12,1.86,5.24l-1.65-1.46a45.72,45.72,0,0,0-7.25-9.07c-2.44-2.47-4.45-5.46-7.77-7,.17-1.24-.71-1.87-1.44-2.64-3.53-3.71-1.62-10.52,3.36-11.79,1.18-.3,1.64-1.26,2.5-1.83,1.29-.85,2.67-1.24,3.14.6a25.51,25.51,0,0,0,2.8,6.44c1,1.71,1.7,3.53.28,5.4a1.52,1.52,0,0,0,2.19-.72c1.88-3.62,5.66-5.4,8.06-8.5a10.4,10.4,0,0,0,2.56-5.69c.23-3.54,2.73-6.06,4.07-9.1.84-1.91,1-3.29-.72-4.9-1.26-1.18-1.94-3-3-4.64,1.49-.27,1.74,1.14,2.83,1.31.16-1.91.34-3.71.47-5.51a1.83,1.83,0,0,1,1.3-1.8c1-.33,1.5.46,1.86,1.11,2,3.67,3.1,7.48,2,11.77-.71,2.81-1,5.73-1.48,8.6-1.1,7-6,12-9.1,18C319.91,57.07,318.89,57.32,319.81,58Z" transform="translate(0)" style="fill:#ded905"/><path d="M208.26,117.94c3.86-6,7.9-12,13.35-16.7,4.32-3.77,8.73-7.46,14.19-9.57.62,2.6,2.29,4.71,3.3,7.13.86,2.1-.6,5.59-2.72,6.35-1.76.63-2.48-1-3.68-1.55-.2-1.82-1.57-2.09-3-2.25l-2-1.3c-2.67,5.83-3,11.57-.34,17.36-.81,4.1.65,7.43,3.66,10.13,1.21,1.08,1.66,2.67,2.83,3.74a46.83,46.83,0,0,0,7,9.17c1,1,2.95,2.12,2.12,3.49-.74,1.22-2.83,1.08-4.41.5.52-1,1.95,0,2.52-1.18a103.57,103.57,0,0,0-16.76-15.16c-5.11-3.59-10.11-7.35-16-9.67Z" transform="translate(0)" style="fill:#98bf22"/><path d="M119.54,105.06c-.24-1.54-1.54-1.69-2.69-2,2-2.55,5.51-3.15,7.62-5.61A12.14,12.14,0,0,1,131.73,93c1.23-.21.88-.87.8-1.71-.18-2.15-.84-4.38.85-6.34a4.22,4.22,0,0,1,4.73-1.49c1.9.6,2.45,2.11,2.27,4a8.64,8.64,0,0,1-.17,2.62c-1.29,2.79.46,3.25,2.51,3.41a18,18,0,0,1,7.78,2.16c4.18,2.41,8.67,1.75,13.14,1a1,1,0,0,0,.17.24,7,7,0,0,1,.38,3.47,20.06,20.06,0,0,1-10.82,1.42c-.6-.06-1.2-.29-1.8-.32-5.68-.23-5.68-.23-8.22,5.19a56,56,0,0,0-15.29,2.77c.39-1.69.76-3.39,1.16-5.07.21-.84.69-1.74-.12-2.45s-1.42.31-2.15.35C124.18,102.42,122.13,104.45,119.54,105.06Z" transform="translate(0)" style="fill:#2f89c5"/><path d="M235.89,91.31a4.17,4.17,0,0,0-.61-2.69,18.8,18.8,0,0,1,9.14-10.47c.25.42.39.26.49-.09l0,0a11.37,11.37,0,0,0,2.35-.16,80.4,80.4,0,0,1,22.11-2.46c2,.1,4-.16,5.87.53a7.83,7.83,0,0,0,5.87,2.62h0a2.2,2.2,0,0,0,3.18,0l0,0c2.71-1.08,4.89.07,7,1.63a12.84,12.84,0,0,1-3.7,2.64,11.51,11.51,0,0,1-5.36,2.66,67.71,67.71,0,0,0-43.58,4.53C237.64,90.48,236.77,90.9,235.89,91.31Z" transform="translate(0)" style="fill:#e7e252"/><path d="M384.32,130.71a3.48,3.48,0,0,1,2-2.56c3.18-1.81,6.34-3.66,9.51-5.49a10.14,10.14,0,0,1,1.07,5.3q-.09,7.49-.2,15c-.32,3.53.81,6.87,1.4,10.27.3,1.73,2.22.24,3.18,1.05-1.59,1.35-3.54.85-5.31.93-10.63.48-21.25,1.79-31.89.46-.8-.1-3.2,1.41-2.24-1.66.22-.68-1.62-.18-2.14-1a1.42,1.42,0,0,1,0-.46,25,25,0,0,1,2.89.23c6.42,1.19,12.74,2.88,19.4,2.41,5.55-.39,8.66-2.7,10.11-8.22,1.11-4.21.92-4.51-3.29-5.57-2.48-.63-4.4-1.67-4.16-4.81A42.25,42.25,0,0,0,384.32,130.71Z" transform="translate(0)" style="fill:#f0d401"/><path d="M565.71,98.43c0,1.65,1.38,2.82,1.61,4.4-1.32.08-2.64-.77-4-.09,2.52,2.43,3.33,3.54,4.07,5.55,1.47,4,1.47,4,5.8,3.74.17,0,.35,0,.53,0,.11,1.06,1,1.59,1.57,2.38,1.7,2.56,4.42,4.26,5.93,7-1.39,1.73-3.36,2.74-5,4.12-.64.53-1.62.85-1.4,2-1.47-2.92-4-5-6-7.44a84,84,0,0,1-11-18q-.84-2.19-1.67-4.36a73.52,73.52,0,0,1-3.42-13c-.2-1.11-.46-1.84-1.72-1.76,2.27-.67,4.51-.51,6,1.42a8,8,0,0,1,1.31,7.16c-.26.91-.94,1.68-1.27,2.58-.41,1.12-.48,1.66,1.17,2.34C560.59,97.42,562.89,98.71,565.71,98.43Z" transform="translate(0)" style="fill:#e17486"/><path d="M409.12,103.72l-5.38,1.43c.18-.76.09-1.8.56-2.23,2.6-2.37.67-4.33-.47-6.33a34.72,34.72,0,0,0-2.29-3.16,139,139,0,0,0,18.88-9.7c.83-.53,1.35-.56,1.91.22,2.27,4.4,2.29,9.06,1.62,13.81-.33,1.27-1.55,1.87-2.17,2.93l-.52.26a42.1,42.1,0,0,0-10.74,2.35C409.92,103,409.53,103.39,409.12,103.72Z" transform="translate(0)" style="fill:#f7b803"/><path d="M139.83,120A19.27,19.27,0,0,1,138,132.38c-1.7,3.62-4.61,6.28-7.28,9.13-.57.61-1.61.83-1.63,1.9-2.05-.31-3.82-1.07-4.76-3.09a14.07,14.07,0,0,1,5.43-5.23c1.7-.88,1.42-2.46,1.42-3.93s-1.16-1-1.93-1.12a2.14,2.14,0,0,1-1-.36c-2.16-1.87-3-1.81-4.48.38-2.25,3.3-3.48,3.72-7.27,2.76-2.47-.61-5-1-7.46-1.57l-.82-.27,7.56-4.09c.73-.28,1.61.39,2.27-.37a5.92,5.92,0,0,1,2.33-1.18C126.7,122.81,133.26,121.39,139.83,120Z" transform="translate(0)" style="fill:#2f89c5"/><path d="M269.34,75.46a80.4,80.4,0,0,0-22.11,2.46,11.37,11.37,0,0,1-2.35.16,21.08,21.08,0,0,1,3.83-2.68c1.27-.86,3.86.19,3.78-3,0-1.48.8-3,.36-4.75-1-4.25.59-7.21,4.64-8.83a12.63,12.63,0,0,1,8.77-.66l.45.29c2.38,3.77,1.63,8.5,3.77,12.35a1.2,1.2,0,0,1-.4,1.41C269.17,73.19,269.39,74.34,269.34,75.46Z" transform="translate(0)" style="fill:#dddb02"/><path d="M313.41,76.52,315.06,78l.53.62a2.25,2.25,0,0,0,.52,1.44A107.7,107.7,0,0,1,323,92.49c.42.91,1.34,2.12.58,2.82s-1.89-.37-2.87-.68c-3.5-1.1-6.68-3.06-10.3-3.85-1-1.69-3.18-1.73-4.38-3.13.3-1.45.83-2.91,0-4.36-1.31-2.27-3.61-4-3.73-7,0-.52-.87-.77-1.49-.94-.92-.25-1.82-.58-2.73-.87-1.13-2.22-3.52-3.35-4.8-5.45a5.52,5.52,0,0,1,3-2.7c3.13,2.12,6.16,4.4,9.4,6.31C308.17,74.13,310.38,76.19,313.41,76.52Z" transform="translate(0)" style="fill:#f3efb6"/><path d="M139.83,120c-6.57,1.42-13.13,2.84-19.38,5.37a5.92,5.92,0,0,0-2.33,1.18c-.92-1.41-.14-2.51.48-3.81,2.35-5,6.43-8.77,9.46-13.28a56,56,0,0,1,15.29-2.77c-.34,2.84-1.89,5.26-2.8,7.91A11.35,11.35,0,0,0,139.83,120Z" transform="translate(0)" style="fill:#a2bbdf"/><path d="M644.29,105.83c3.3.71,4.48,2.53,3.58,6.27a3,3,0,0,0,1.31,3.55,125.51,125.51,0,0,1,10.15,10c1.44,1.5,3.53,2.35,4.41,4.43.21.48.71.89.77,1.37.12,1,1.12,2.19-.08,2.89-1.39.8-1.58-.93-2.29-1.53s-1.28-2.64-2.37-2-.14,2.23.31,3.25a16.93,16.93,0,0,1,1.14,4.05c-1.65-.57-2.54-1.83-3.58-2.87-1.36-1.38-2.63-2.68-3.14.87a3,3,0,0,1-.31-3.49c.43-1.11.36-2.29-.67-2.84-5.46-2.95-9.48-7.5-13.59-12a3.68,3.68,0,0,0-.92-.5,3.89,3.89,0,0,1,.72-1.93C641.31,112.18,643.65,109.41,644.29,105.83Zm6.94,16.9.07-.36-.33,0,.3.3c1.64,2.56,4,4.42,6.17,6.82A7.41,7.41,0,0,0,651.23,122.73Z" transform="translate(0)" style="fill:#922281"/><path d="M351.16,143c1.56,1.31,2.14-1,3.83-.89-1,2-2.72,2.75-4.42,3.43-3.61,1.45-5.37,4.2-5.73,8l-5.92,0c-3.84-1.15-7.72-.57-11.59-.3a3.59,3.59,0,0,0-3.25.57,1,1,0,0,1-1.44-.15c-.37-.53.05-1,.43-1.36a30.69,30.69,0,0,1,6.94-6.07,11.81,11.81,0,0,0,6.66-5.29c1.59-2.73,6.93-3.08,9-.86A8.69,8.69,0,0,0,351.16,143Z" transform="translate(0)" style="fill:#fefcf9"/><path d="M511.54,142.82A211.43,211.43,0,0,0,479.15,145l-.13-.16a26,26,0,0,0,1.22-5.37c0-.63.12-1.48,1-1,2.68,1.46,5.74-.16,8.44,1.19a5.47,5.47,0,0,0,2.36,0,1.21,1.21,0,0,0,1.23-.81c.19-.63-.31-.92-.74-1.25-1.17-.89-2.67-1.6-2.69-3.34a8.17,8.17,0,0,0-1.78-4.59.46.46,0,0,0,.05-.36l4.31-1.88.26,0,.25,0c2.93,6.74,8.39,9.81,15.39,10.66l.56,0c1,1.07,2,2.18,3.05,3.18C512.84,142.16,512,142.41,511.54,142.82Z" transform="translate(0)" style="fill:#d30c53"/><path d="M330,146.19a30.69,30.69,0,0,0-6.94,6.07c-.38.41-.8.83-.43,1.36a1,1,0,0,0,1.44.15,3.59,3.59,0,0,1,3.25-.57c-.19.78-.37,1.57-.56,2.35l-.63,0c-.16-1-.92-.85-1.61-.91a19.38,19.38,0,0,0-6.44.69c-1.41.38-1.46-.28-1.45-1.27l.48-.87q1.35-6.6,2.69-13.2c2.61-.85,3.57-4.41,6.94-4.15.69.06.56-1.11.51-1.81a9.42,9.42,0,0,1,.54-4.93,13.69,13.69,0,0,0,1-6.22c-2.25,0-2.67,1.82-3.59,3.1-.1-.84-.54-2.27-.25-2.45,2.39-1.4,2.85-3.86,3.52-6.69a45.31,45.31,0,0,1,1.38,4.75l.15-1c1.62,6.52.79,13.06.26,19.62C330.07,142.14,328.73,144.13,330,146.19Z" transform="translate(0)" style="fill:#e7e252"/><path d="M167.57,128.64q-4.48,5.56-9,11.14a17.29,17.29,0,0,0-3.35,7.13,7.21,7.21,0,0,1-1.08,2.68,2.19,2.19,0,0,1-2,1.09c-.92-.09-1.24-.85-1.43-1.68-.48-2.09-.91-4.12.42-6.13.67-1,.37-2.16.32-3.37a7.55,7.55,0,0,1,2.75-6c3.54-2.93,5.46-7.14,8.56-10.42,1.09-1.16-.24-2.75.35-4.07a29.06,29.06,0,0,1,6.63.81c-.5,1-1.1,2-1.5,3-.66,1.77-1.27,3.42-3.61,1.84a.84.84,0,0,0-1.32.36c-.41.76.11,1.07.67,1.42C165.19,127.21,166.66,127.47,167.57,128.64Z" transform="translate(0)" style="fill:#3ea8da"/><path d="M208.35,118.43c5.88,2.32,10.88,6.08,16,9.67a103.57,103.57,0,0,1,16.76,15.16c-.57,1.22-2,.18-2.52,1.18-.9.81,0,1,.46,1.27,1.61,1.06,3.25,2.09,4.86,3.16,1.27.85,1,1.55-.2,2.26-2.53,1.43-3.93.87-6-1.67-1.35-1.67-3.26-2.89-4.92-4.31a26,26,0,0,0-5.92-10.22c-1.72-5.28-5.37-7.59-10.83-8.84-3.49-.8-7-1-10.45-1.78A12.09,12.09,0,0,1,208.35,118.43Z" transform="translate(0)" style="fill:#c4d683"/><path d="M81.32,134c3.89-4.16,8.7-7.12,13.34-10.32.92-.63,2.13-.93,2.64-2.08a9.89,9.89,0,0,1,2,2c1.3,2.43,3.56,3.47,5.92,4.42.52,1.15,2.08,1.58,2.13,3.06-2.06,2-5.12,2.57-6.95,4.89A13.15,13.15,0,0,0,90,135.56C87,136.58,83.85,136.47,81.32,134Z" transform="translate(0)" style="fill:#85a3d2"/><path d="M526.46,120.14c3.52,2.92,6.51,6.4,10.22,9.15,4.14,3.07,8.83,5.1,13.14,7.8-4.29,1.69-8.86,2.15-13.32,3.11l-12.59-10.13c-.08-.33-.15-.65-.22-1C526,126.54,526.12,123.3,526.46,120.14Z" transform="translate(0)" style="fill:#e17486"/><path d="M100.4,136c1.83-2.32,4.89-2.89,6.95-4.89l.94-.15.82.27a4.25,4.25,0,0,0,3,2.66,25.58,25.58,0,0,1,12.19,6.41c.94,2,2.71,2.78,4.76,3.09a19.05,19.05,0,0,1,5.73,3.09c.9.6,1.64,1.43,1.13,2.64a2.1,2.1,0,0,1-2.41,1.19c-3.56-.36-6.18-2.48-8.72-4.73-1.83-1.45-4.07-2.1-6.09-3.18a8.08,8.08,0,0,0-4.28-1.78C109.37,140.28,105,138,100.4,136Z" transform="translate(0)" style="fill:#0460a6"/><path d="M418.18,131.14a24.67,24.67,0,0,1-1.15,4.59c-2.49,5.36-2.24,10.92-1.4,16.52.33,2.17-.49,3.15-2.58,3.27-.18,0-.35.07-.53.07-1.81,0-4.1.88-5.29-.63s.74-3.35,1.07-5c.82-4.16,3.6-7.86,2.91-12.36l-.06,0c.5.22.4-.23.5-.45,1-.89.91-2.13,1.13-3.28C414.71,133.22,416.15,131.6,418.18,131.14Z" transform="translate(0)" style="fill:#f7b803"/><path d="M292.67,138.6c2.74-1.54,3.87-4.35,5.37-6.86,1.13,1.8.57,3.8.47,5.66-.27,4.85,2.39,8.32,5.09,11.81.53.68,1.35,1.59,2.21.82,1.12-1,2.71-1.35,3.53-2.69l.84.18c.84,2.46.54,2.8-3.17,3.59.53,1.23,3.12.17,2.7,2.44l-.19.1c-3.17,1.09-5.76-.46-8.4-1.8l-.39-.39h0l2.46-.84a6,6,0,0,1-2.13-2.16,4.65,4.65,0,0,0-2.37-2c-1.22-.44-2.23-.92-1.83,1.33a5.23,5.23,0,0,1-4.06,5.77c-.79.12-1.09-.36-1.24-1,1.62-.57,2.65-1.79,2.18-3.41-1-3.46.47-7.12-1-10.5Z" transform="translate(0)" style="fill:#ccc600"/><path d="M169.78,119.81a29.06,29.06,0,0,0-6.63-.81c1.08-3.93.29-7.93.53-11.9,0-.84-.27-1.76.44-2.49.15,1.46,1.43,1.39,2.35,1.52,2.38.34,4.79.49,7.19.72a1.28,1.28,0,0,1,.14.43c.23,4.51-2.05,8.26-3.71,12.2A1.08,1.08,0,0,1,169.78,119.81Z" transform="translate(0)" style="fill:#a2bbdf"/><path d="M511.54,142.82c.49-.41,1.3-.66.39-1.51-1.08-1-2-2.11-3-3.18a20.85,20.85,0,0,0,12.81-5.38,32.69,32.69,0,0,1,5.39,5.64c1.2,1.65,2.6,2.75,4.76,2.48-4.06.49-8.12,1-12.19,1.47C517,142.61,514.25,142.67,511.54,142.82Z" transform="translate(0)" style="fill:#e17486"/><path d="M412.78,133.86c-.22,1.15-.17,2.39-1.13,3.28-.29,0-.51.1-.5.45l.06,0c-1.88,1.19-2.67,3.19-3.63,5a12.29,12.29,0,0,1-2.7,3.56c-2.56,2.23-4.47,1.71-5.42-1.53a1.94,1.94,0,0,0-.89-1.2c2.06-1.79,2.88-4.53,4.89-6.36a2.47,2.47,0,0,0,.84-2.13c.3.1.84.34.87.28a7.51,7.51,0,0,1,6-4.16c.19,0,.35-.36.53-.55C412.14,131.57,410.85,133.25,412.78,133.86Z" transform="translate(0)" style="fill:#f09406"/><path d="M581.18,121.39c-1.51-2.72-4.23-4.42-5.93-7-.53-.79-1.46-1.32-1.57-2.38a.8.8,0,0,1,.43-.13,1.55,1.55,0,0,0,1.77-.23c3-.63,6.21-.1,9-1.71l6.83,3C588.3,115.86,585.08,119.06,581.18,121.39Z" transform="translate(0)" style="fill:#d30c53"/><path d="M404.3,134.92a2.47,2.47,0,0,1-.84,2.13c-2,1.83-2.83,4.57-4.89,6.36l-1.94-.48c.73-2,1.39-4,2.2-5.9a10.76,10.76,0,0,0,.41-7.93c-.75-2.23-1.21-4.57-1.79-6.86a29.42,29.42,0,0,1,7.41-3.33c0,.72.09,1.43.13,2.15l-.07.63C403.44,126,402.63,130.42,404.3,134.92Z" transform="translate(0)" style="fill:#f7b803"/><path d="M644.29,105.83c-.64,3.58-3,6.35-4.56,9.48a3.89,3.89,0,0,0-.72,1.93,19.54,19.54,0,0,1-7.38-4.33c1.32-3.49,4-6.28,5-9.94.09,0,.2,0,.25,0C639,104.82,641.31,106.26,644.29,105.83Z" transform="translate(0)" style="fill:#e17486"/><path d="M180.1,121.68l8,2.06c1.48,4.48,2.6,9.09,4.86,13.28-1.16,1.24-.55,2.75-.65,4.16-3-2.54-4.3-6.17-6-9.53-.27-.54-.31-1.18-.54-1.75-1.81-4.53-1.81-4.53-6.19-2.41-1.31-1.69-.21-3.49-.27-5.24a.79.79,0,0,0,.25-.42Z" transform="translate(0)" style="fill:#98bf22"/><path d="M610.41,142.4c-1,.5-1,1,0,1.48a4.6,4.6,0,0,1-2.08-.2c-4.36-1.07-8.77-1.48-13,.25s-8.51,2.43-13.06.73c-2.85-1-5.85-.45-8.86,0-2.72.44-5.77,1.53-8.23-1,.5-1.58,2.18.58,2.73-.86a28.93,28.93,0,0,0,9.72-.79,9.61,9.61,0,0,1,6,.6,14,14,0,0,0,9.33,0A32.31,32.31,0,0,1,610.41,142.4Z" transform="translate(0)" style="fill:#a2bbdf"/><path d="M118.75,142.42c2,1.08,4.26,1.73,6.09,3.18-.71-.11-1.65-.25-1.54.77s-.78,2.56,1,3.11c.46.14,1.14.35,1,1s-.82.6-1.33.63a6.56,6.56,0,0,0-3.29.62,4.46,4.46,0,0,1-5.6-.62,4.58,4.58,0,0,1-1.57-4.74,4.74,4.74,0,0,1,4.19-3.82Z" transform="translate(0)" style="fill:#2f89c5"/><path d="M313.41,76.52c-3-.33-5.24-2.39-7.71-3.83-3.24-1.91-6.27-4.19-9.4-6.31,1.81-.8,2.83-1.87,1.59-3.95-.41-.68-.63-1.54.5-1.93,3.32,1.49,5.33,4.48,7.77,7A45.72,45.72,0,0,1,313.41,76.52Z" transform="translate(0)" style="fill:#f8e790"/><path d="M179.33,122.25c.06,1.75-1,3.55.27,5.24l-.08.53c-2.76,3.41-2.56,7.74-3.57,11.69-.24.92.46,1.45,1.05,2,.24.69,1.3,1.54-.38,1.82-5.44-.09-4.93.67-5-3.31l0,0c1.29,0,1-.92,1-1.66.19-4,1.69-7.64,2.54-11.46C175.78,124.42,176.64,122.77,179.33,122.25Z" transform="translate(0)" style="fill:#0f903f"/><path d="M505.75,96.63a21,21,0,0,0-.13-2.1c-.25-1.53-1.08-1.19-2-.56a23.13,23.13,0,0,1-1.13-6.23c3.37.47,6.83.69,9.56,3.13-.66,1.7.42,3.12.79,4.64.32,1.26,1,2.43.84,3.79C510.85,99,508.39,97.55,505.75,96.63Z" transform="translate(0)" style="fill:#d94568"/><path d="M226.87,134.93a26,26,0,0,1,5.92,10.22c-.68,2.39-2.23,4.84.63,7-1.84.54-2.74-.38-3.52-1.67-.41-.68-.48-1.83-1.75-1.61a19.18,19.18,0,0,0-3.89-3.85C226.16,141.94,228,138.82,226.87,134.93Z" transform="translate(0)" style="fill:#e7e252"/><path d="M208.35,118.43a12.09,12.09,0,0,0-2.76,5.88,22.14,22.14,0,0,1-8.44-1.94c.53-2.14,1.76-4,2.55-6,.64-1.65,1.59-1.55,2.84-1l5.72,2.58Z" transform="translate(0)" style="fill:#f3efb6"/><path d="M173.8,107.28a1.28,1.28,0,0,0-.14-.43,7.34,7.34,0,0,0,.48-.92c.32-1,2-1.76,1.43-2.5s-2.27-1.12-3.62-1a11,11,0,0,0-2.07.28c-1.5.47-3,1-4.59.66l0-1.42c1.24-1.59,3.33-.52,4.77-1.5l3.6-.6L179,101c.51.71,1,1.47,1.53,2.14a4.1,4.1,0,0,1,.54,5.11C178.58,108.24,176.28,107.12,173.8,107.28Z" transform="translate(0)" style="fill:#0f903f"/><path d="M171.62,140.2c.07,4-.44,3.22,5,3.31-.27,7.59.27,6.57-7.08,6.63a5.16,5.16,0,0,1-2-.39c-1-.4-2.22-.94-2.15-2.05.08-1.31,1.44-1.19,2.49-1.28,1.85-.14,3.31-.54,2.85-3.06A4,4,0,0,1,171.62,140.2Z" transform="translate(0)" style="fill:#3ea8da"/><path d="M264.65,52.72c-1.89-3.75-2.79-7.81-3.72-11.86l6.22,1.59a91.58,91.58,0,0,1,1.58,11.88Z" transform="translate(0)" style="fill:#f3efb6"/><path d="M531.85,140.87c-2.16.27-3.56-.83-4.76-2.48a32.69,32.69,0,0,0-5.39-5.64c0-.15,0-.31,0-.47.79-.69,1.15-1.83,2.25-2.21L536.5,140.2Z" transform="translate(0)" style="fill:#d30c53"/><path d="M397.45,122.24c.58,2.29,1,4.63,1.79,6.86a10.76,10.76,0,0,1-.41,7.93c-.81,1.94-1.47,3.93-2.2,5.9h.05q.1-7.48.2-15a10.14,10.14,0,0,0-1.07-5.3,11.08,11.08,0,0,0-.29-2.09c-.82-2.48-.13-4,2.82-4.49C397.84,118.16,397,120.13,397.45,122.24Z" transform="translate(0)" style="fill:#fefcf9"/><path d="M412.78,133.86c-1.93-.61-.64-2.29-1.12-3.37l.09-.75c.93-1.34,1.85-2.69,2.8-4,1.24-1.74,2.79-2.84,5.07-2.27a33.76,33.76,0,0,0-1.06,7.28l-.38.41C416.15,131.6,414.71,133.22,412.78,133.86Z" transform="translate(0)" style="fill:#e55320"/><path d="M293.26,69.08c1.28,2.1,3.67,3.23,4.8,5.45-1-.28-1.39.51-1.95,1-1.26,1.21-2.27,2.7-3.85,3.58-2-.55-3.2-2.35-4.93-3.35A37.64,37.64,0,0,0,293.26,69.08Z" transform="translate(0)" style="fill:#eae67e"/><path d="M269.34,75.46c.05-1.12-.17-2.27.74-3.22a1.2,1.2,0,0,0,.4-1.41c-2.14-3.85-1.39-8.58-3.77-12.35a5.13,5.13,0,0,1,3,1.51c2,1.85,2.15,4.16,2.06,6.7-.11,2.75.16,5.54,2.94,7.19a3.48,3.48,0,0,1,.54,2.11C273.3,75.3,271.3,75.56,269.34,75.46Z" transform="translate(0)" style="fill:#ccc600"/><path d="M292.69,138.58c1.5,3.38,0,7,1,10.5.47,1.62-.56,2.84-2.18,3.41-1-.65-1.07-1.74-1.23-2.77a9.68,9.68,0,0,0-.32-1.8c-.5-1.34-2.14-2.33-1.42-4A11.09,11.09,0,0,1,292.69,138.58Z" transform="translate(0)" style="fill:#ded905"/><path d="M430.54,76c1.08,0,1.56-1,2.31-1.51h0l.27.47c0,1.73,0,3.46,0,5.19,0,.4,0,.79-.07,1.18.17,2.39-1.63,3.55-3.12,4.86-.52.45-1,.64-1.7-.2-.84-1,.17-1.28.35-1.86.13-.4,1.73.16.88-.83s1.79-1.17.17-1.88a2.3,2.3,0,0,0-2.43.47,3.3,3.3,0,0,1-1.78.63C427.31,80.46,428.74,78.09,430.54,76Z" transform="translate(0)" style="fill:#f7b803"/><path d="M267.15,42.45l-6.22-1.59a17.79,17.79,0,0,1-.6-5.72,2.59,2.59,0,0,1,1.92-2.55c1.23-.27,1.89.68,2.41,1.62A27.37,27.37,0,0,1,267.15,42.45Z" transform="translate(0)" style="fill:#e7e252"/><path d="M192.33,141.18c.1-1.41-.51-2.92.65-4.16,1.84,1.18,2.74,3.16,4.05,4.79a11.25,11.25,0,0,0,3.29,3l-.48,3.27C196.62,148.08,193.75,145.43,192.33,141.18Z" transform="translate(0)" style="fill:#c4d683"/><path d="M301.12,151.85c2.64,1.34,5.23,2.89,8.4,1.8,0,.35,0,.74.47.72,2.21-.1,4.43-.23,6.65-.35,0,1,0,1.65,1.45,1.27a19.38,19.38,0,0,1,6.44-.69c.69.06,1.45-.07,1.61.91H299.4C301.79,154.69,300.32,152.93,301.12,151.85Z" transform="translate(0)" style="fill:#f0d401"/><path d="M567.9,142.85c-.55,1.44-2.23-.72-2.73.86-3-1.42-6.09-.59-9.1,0a34.52,34.52,0,0,1-8.94.81c-2.13-.18-4.19-.6-5.4-3,1.51-.14,2.64.58,3.85.84a24.38,24.38,0,0,0,12.06-.27A13.09,13.09,0,0,1,567.9,142.85Z" transform="translate(0)" style="fill:#85a3d2"/><path d="M224.26,145a19.18,19.18,0,0,1,3.89,3.85c-4.38,3.89-7.24,5.74-11.92,2.33C220.23,150.52,223.2,148.87,224.26,145Z" transform="translate(0)" style="fill:#ded905"/><path d="M585.84,136.62c1-.22,1.11-.47.22-1.17-1.5-1.19-3.65-1.6-4.43-3.66,3.94,1.36,8.35.75,12.11,2.87.91.51,1.89.91,2.83,1.37-.18.5-.36,1-.53,1.52A65.67,65.67,0,0,1,585.84,136.62Z" transform="translate(0)" style="fill:#e17486"/><path d="M179.33,122.25c-2.69.52-3.55,2.17-4.15,4.86-.85,3.82-2.35,7.49-2.54,11.46,0,.74.25,1.7-1,1.66.13-4.1,1.9-8,1.58-12.17-.2-2.67-.16-5.36-.94-8,2.51.33,5,.48,7.34,1.73A.79.79,0,0,1,179.33,122.25Z" transform="translate(0)" style="fill:#3ea8da"/><path d="M232.18,84c-4.25,1.5-7.72,4.3-11.32,6.86-.7.5-1.27,1.23-2.27,1.09.45-.55.9-1.08,1.33-1.63,2.13-2.81,7.09-4.23,4.05-9.4,2.32.36,2.4,3.08,4.85,2.83,2.61-.26,1.44-3,3.09-3.78C232.8,81.22,233.14,82.52,232.18,84Z" transform="translate(0)" style="fill:#98bf22"/><path d="M502.52,87.74A23.13,23.13,0,0,0,503.65,94c.54,2.78-1.43.58-2.06,1-.77-.39-1.54-.77-2.3-1.18-1.26-.67-2.65-1.39-2.32-3.08a3.4,3.4,0,0,1,3.46-3C501.12,87.73,501.82,87.75,502.52,87.74Z" transform="translate(0)" style="fill:#d30c53"/><path d="M292.78,153.51a5.23,5.23,0,0,0,4.06-5.77c-.4-2.25.61-1.77,1.83-1.33a4.65,4.65,0,0,1,2.37,2,6,6,0,0,0,2.13,2.16l-2.46.84a1.63,1.63,0,0,1-.31-.11l-2.15-1c-.08.15-.24.31-.2.42.35,1,1.65,1.91.71,3.06s-2.12.58-3.22.39C294.61,154.09,293.7,153.76,292.78,153.51Z" transform="translate(0)" style="fill:#ded905"/><path d="M165.29,103.39c1.62.39,3.09-.19,4.59-.66a11,11,0,0,1,2.07-.28c1.35-.14,2.91.1,3.62,1s-1.11,1.51-1.43,2.5a7.34,7.34,0,0,1-.48.92c-2.4-.23-4.81-.38-7.19-.72-.92-.13-2.2-.06-2.35-1.52A1.56,1.56,0,0,1,165.29,103.39Z" transform="translate(0)" style="fill:#3ea8da"/><path d="M173.69,99.87l-3.6.6c-1.81-1.43-3.63-.17-5.45,0a1.33,1.33,0,0,1-.45-.08,7,7,0,0,0-.38-3.47c1.84-1.11,4.53-.19,6-2.67-.25,1.63.09,2.63,1.74,3A2.68,2.68,0,0,1,173.69,99.87Z" transform="translate(0)" style="fill:#0460a6"/><path d="M179.58,121.83c-2.29-1.25-4.83-1.4-7.34-1.73-.13-.41-.13-.91-.64-1.11.8-1.9,1.61-3.81,2.64-6.27,1.59,3.64,5,5.37,5.86,9Z" transform="translate(0)" style="fill:#a2bbdf"/><path d="M169.78,119.81a1.08,1.08,0,0,0,.31-.33l.95.14c-.57,2.69-2.1,5.13-2,8,0,1.06-.86.86-1.47,1-.91-1.17-2.38-1.43-3.55-2.16-.56-.35-1.08-.66-.67-1.42a.84.84,0,0,1,1.32-.36c2.34,1.58,3-.07,3.61-1.84C168.68,121.8,169.28,120.82,169.78,119.81Z" transform="translate(0)" style="fill:#0f903f"/><path d="M65.38,150.85A32,32,0,0,1,71.25,144c0,1.64-.37,3.28.06,4.92.48,1.81-.25,2.68-2.13,2.5C67.91,151.25,66.55,151.69,65.38,150.85Z" transform="translate(0)" style="fill:#85a3d2"/><path d="M585.85,148.3c3,.37,5.4-.88,7.9-2.34,3.74-2.18,9.74-2.1,13.65-.21,0,.06-.12.2-.16.19a24.31,24.31,0,0,0-17,2.84C588.85,149.54,587.34,149.22,585.85,148.3Z" transform="translate(0)" style="fill:#a2bbdf"/><path d="M326.77,155.55c.19-.78.37-1.57.56-2.35,3.87-.27,7.75-.85,11.59.3C334.92,154.5,331.09,156.44,326.77,155.55Z" transform="translate(0)" style="fill:#f0d401"/><path d="M645.25,147.73c5.64.51,10.87-1.19,16.09-3C655.5,148.62,651.19,149.41,645.25,147.73Z" transform="translate(0)" style="fill:#2f89c5"/><path d="M177,141.69c-.59-.53-1.29-1.06-1.05-2,1-4,.81-8.28,3.57-11.69C179.64,132.75,178.21,137.2,177,141.69Z" transform="translate(0)" style="fill:#3ea8da"/><path d="M269.67,60a5.13,5.13,0,0,0-3-1.51l-.45-.29c0-2-1.43-3.55-1.61-5.47l4.08,1.61C269,56.22,269.36,58.1,269.67,60Z" transform="translate(0)" style="fill:#ded905"/><path d="M275.21,76a3.48,3.48,0,0,0-.54-2.11c2.91.53,4.35,3.05,6.41,4.73A7.83,7.83,0,0,1,275.21,76Z" transform="translate(0)" style="fill:#ded905"/><path d="M287.33,75.81c1.73,1,2.91,2.8,4.93,3.35a1.89,1.89,0,0,1-1.09,1.09c-2.09-1.56-4.27-2.71-7-1.63C284.9,77.32,286.26,76.72,287.33,75.81Z" transform="translate(0)" style="fill:#ded905"/><path d="M150.4,62.77c0,.28,0,.55.08.82l-11.38.59c-.57-.65-1.41-.23-2.08-.5A66.68,66.68,0,0,1,150.4,62.77Z" transform="translate(0)" style="fill:#a2bbdf"/><path d="M567.82,147.51a8.15,8.15,0,0,1-5-1.17c-1.33-.88-2.82-.86-4.53-1a4.51,4.51,0,0,1,5.25,0,11.52,11.52,0,0,0,4.36,1.67A3.86,3.86,0,0,0,567.82,147.51Z" transform="translate(0)" style="fill:#85a3d2"/><path d="M199.84,148.09l.48-3.27a9.44,9.44,0,0,1,3.78,2.86A6.72,6.72,0,0,1,199.84,148.09Z" transform="translate(0)" style="fill:#98bf22"/><path d="M137,63.68c.67.27,1.51-.15,2.08.5-1.49,0-2.18.66-2.16,2.21,0,.62-.17,1.66-1.07,1.44-1.05-.24-1.09-1.23-.71-2.13A3,3,0,0,1,137,63.68Z" transform="translate(0)" style="fill:#3ea8da"/><path d="M153.49,63.4a78.47,78.47,0,0,1,12.36,0A50.12,50.12,0,0,1,153.49,63.4Z" transform="translate(0)" style="fill:#a2bbdf"/><path d="M596,137.55c.17-.51.35-1,.53-1.52,1.33.15,2.36.88,4.18,1.87A13.93,13.93,0,0,1,596,137.55Z" transform="translate(0)" style="fill:#d94568"/><path d="M164.64,100.45c1.82-.15,3.64-1.41,5.45,0-1.44,1-3.53-.09-4.77,1.5C165.09,101.47,164.87,101,164.64,100.45Z" transform="translate(0)" style="fill:#3ea8da"/><path d="M567.82,147.51a3.86,3.86,0,0,1,.06-.49c.56-.63,1.29-.29,2.55-.51C569.28,147.26,568.64,147.61,567.82,147.51Z" transform="translate(0)" style="fill:#a2bbdf"/><path d="M284.22,78.6a2.2,2.2,0,0,1-3.18,0Z" transform="translate(0)" style="fill:#ded905"/><path d="M433.07,81.34c0-.39.05-.78.07-1.18A.74.74,0,0,1,433.07,81.34Z" transform="translate(0)" style="fill:#fbd990"/><path d="M433.13,75l-.27-.47C433.29,74.46,433.41,74.61,433.13,75Z" transform="translate(0)" style="fill:#fbd990"/><path d="M244.91,78.06c-.1.35-.24.51-.49.09A.54.54,0,0,1,244.91,78.06Z" transform="translate(0)" style="fill:#dddb02"/><path d="M300.4,151.34a1.63,1.63,0,0,0,.31.11h0l-.2,0Z" transform="translate(0)" style="fill:#f0d401"/><path d="M309.34,147.34c-.82,1.34-2.41,1.69-3.53,2.69-.86.77-1.68-.14-2.21-.82-2.7-3.49-5.36-7-5.09-11.81.1-1.86.66-3.86-.47-5.66l.06-.69c1,.14,1.07-.77,1.51-1.25,1.73-1.88,3.31-4.14,6-4.44,2.33-.26,2.42-1.47,2.2-3.27-.55-4.42-2.54-8.42-3.58-12.69-.11-.44-.26-1.28-1-.76-1.21.87-1.08-.24-1.19-.77-.2-.94-.62-2.07-.29-2.83,1.48-3.39.63-7,1.13-10.4.37-2.59.52-5.33,3.07-7,1.2,1.4,3.38,1.44,4.38,3.13.23.57.42,1.16.7,1.7a81.38,81.38,0,0,1,9.26,38.19l.06,1.14a9.33,9.33,0,0,1-4.17,3.11c-3.06,1.31-6.25,2.34-9.35,3.58-3.6,1.43-3.84,3.28-.84,5.84C307.18,145.3,308.25,146.34,309.34,147.34Z" transform="translate(0)" style="fill:#ded905"/><path d="M306,87.65c-2.55,1.66-2.7,4.4-3.07,7-.5,3.44.35,7-1.13,10.4-.33.76.09,1.89.29,2.83.11.53,0,1.64,1.19.77.72-.52.87.32,1,.76,1,4.27,3,8.27,3.58,12.69.22,1.8.13,3-2.2,3.27-2.73.3-4.31,2.56-6,4.44-.44.48-.55,1.39-1.51,1.25a108.25,108.25,0,0,0-8.67-44.42l-2-3.74a12.84,12.84,0,0,0,3.7-2.64,1.89,1.89,0,0,0,1.09-1.09c1.58-.88,2.59-2.37,3.85-3.58.56-.54,1-1.33,1.95-1s1.81.62,2.73.87c.62.17,1.46.42,1.49.94.12,3,2.42,4.68,3.73,7C306.84,84.74,306.31,86.2,306,87.65Z" transform="translate(0)" style="fill:#fefcf9"/><path d="M227.39,117.41c-2.67-5.79-2.33-11.53.34-17.36l2,1.3c-.65,2.12-1.44,4.2-1.21,6.48A43.44,43.44,0,0,1,227.39,117.41Z" transform="translate(0)" style="fill:#fefcf9"/><path d="M287.47,82.89l2,3.74c-.46.3-.63,1.16-1.45.78-1.87-.87-4.06-.79-5.87-1.86A11.51,11.51,0,0,0,287.47,82.89Z" transform="translate(0)" style="fill:#ded905"/><path d="M228.48,107.83c-.23-2.28.56-4.36,1.21-6.48,1.44.16,2.81.43,3,2.25l0,0-.55.55h0a.85.85,0,0,0-1.07.53h0c-.56.24-.34.46,0,.67C231,107,228.55,106.14,228.48,107.83Z" transform="translate(0)" style="fill:#ded905"/><path d="M231.11,104.65a.85.85,0,0,1,1.07-.53A.9.9,0,0,1,231.11,104.65Z" transform="translate(0)" style="fill:#98bf22"/><path d="M232.17,104.13l.55-.55Z" transform="translate(0)" style="fill:#98bf22"/><path d="M231.13,105.33c-.36-.21-.58-.43,0-.67Z" transform="translate(0)" style="fill:#98bf22"/><path d="M320.35,130.67a81.38,81.38,0,0,0-9.26-38.19c-.28-.54-.47-1.13-.7-1.7,3.62.79,6.8,2.75,10.3,3.85,1,.31,2.14,1.35,2.87.68s-.16-1.91-.58-2.82A107.7,107.7,0,0,0,316.11,80a2.25,2.25,0,0,1-.52-1.44l10.12,3.69c6.33,2.54,13,3.82,19.68,4.85,1.22.19,2.44.41,3.65.62l.58,1.56-.51.5c-.85,0-1.7-.06-1.59,1.19,0,.3-.09.6-.13.91-1.43.93.84,2.4-.15,2.88C344,96.37,341.1,99.06,337,98.12c-1.59-.35-3.23-1.56-5-.33l-1.06,0-4.57-1.31c-.49-.14-1-.54-1.48-.13s-.11,1,.05,1.44q1.71,5.27,3.41,10.54L329.92,119l0,.58,0,1c-.06.34-.11.68-.16,1a45.31,45.31,0,0,0-1.38-4.75c-.67,2.83-1.13,5.29-3.52,6.69-.29.18.15,1.61.25,2.45v0c-.53.19-.56.64-.56,1.1l0,0c-.52.19-.54.64-.56,1.1l0,0a1.46,1.46,0,0,0-1.08,1.62h0l-.55.55h0a.92.92,0,0,0-1.08.54h0Z" transform="translate(0)" style="fill:#eae67e"/><path d="M347.39,91.92c0-.31.09-.61.13-.91a2.16,2.16,0,0,0,1.59-1.19l.51-.5,1.08-1.46c1.65-2.62,2.68-5.68,5.87-7.15,2-.92,5.52.65,5.66,2.86.1,1.75,0,3.55,1.56,4.83,1.15,2.71,3.95,3.3,6.11,4.65,1.14.71,1.75,1.11.43,2.16A4.89,4.89,0,0,0,368.6,100c1.13-.79,2.84,0,3.27-1.78.15-.63-.05-1.67,1.05-1.34s.48,1.13.3,1.78-.24,1-.36,1.52c-.31.31-.89.63-.87.92.21,3.63-2.55,5.81-4.08,8.59-1.06,1.93-1.9,1.53-3,.14-1.7-2.12-3.48-4.19-5.22-6.28,0-.31,0-.63.05-.94l4.11.19.66.07c.69-.28.77-.89.81-1.51.46-1.46,0-2.1-1.6-2-3.14.08-6.29.13-9.43,0-1.82,0-3.71-.23-4.16-2.6l.5-.62a1.08,1.08,0,0,0-.36-1.1l-.67-.53h0l-.44-.61Z" transform="translate(0)" style="fill:#fefcf9"/><path d="M372.86,100.2c.12-.51.23-1,.36-1.52s.66-1.49-.3-1.78-.9.71-1.05,1.34c-.43,1.82-2.14,1-3.27,1.78a4.89,4.89,0,0,1,1.73-4.81c1.32-1,.71-1.45-.43-2.16-2.16-1.35-5-1.94-6.11-4.65,6.86-1.11,13.86-1.42,20.59-3.36,1.1-.31,2.23-.53,3.35-.79.29,1.46-.34,2.75-.78,4.07-1.18,3.56.42,5.47,4.19,5.8,2.25.19,4.65-1.74,6.75.4l-1.56.73c-2.59.78-5.15,1.7-7.79,2.31C383.37,98.76,378.25,100.29,372.86,100.2Z" transform="translate(0)" style="fill:#f8e790"/><path d="M325.71,82.29,315.59,78.6l-.53-.62c.46-2.12.54-4-1.86-5.24-1.39-.71-.25-2.72-1.13-3.58-2.35-2.3-1.21-4.33,0-6.51a6.6,6.6,0,0,0,.63-2.26c.13-.79-1.59-1.78-.05-2.34,1.3-.48,2.92-1.43,4.2,0,1,1,1.95.34,2.92.47A65.81,65.81,0,0,1,325.71,82.29Z" transform="translate(0)" style="fill:#ccc600"/><path d="M393.65,82.15a20.26,20.26,0,0,1-5.8,1.75L390,77.62C392.28,78.26,392.81,80.33,393.65,82.15Z" transform="translate(0)" style="fill:#f09406"/><path d="M350.7,87.86l-1.08,1.46L349,87.76Z" transform="translate(0)" style="fill:#f8e790"/><path d="M526.46,120.14c-.34,3.16-.47,6.4-2.77,9-3.62-2.8-6-6.67-8.93-10.1-2.77-4.57-5.76-9-7.58-14.12a1.86,1.86,0,0,0-2-1.33,16.17,16.17,0,0,1,11.68,1.59c1.85,5.37,5.24,9.74,9,13.9Z" transform="translate(0)" style="fill:#de674f"/><path d="M516.85,105.14a16.17,16.17,0,0,0-11.68-1.59,16.76,16.76,0,0,0-6.48,2.74c-.68.41-1.34,2.18-2.39.39-.86-1.45-1-2.86.65-3.86a71,71,0,0,1,6.39-3.65,5,5,0,0,0,2.41-2.54c2.64.92,5.1,2.39,8,2.67,4,.66,7.55,2.69,11.13,4.5a3.84,3.84,0,0,1,2.3,3.26c.49,4.13,2.75,5.29,6.58,3.52.78-.36,1.43-1.52,2.54-.55.89.78.26,1.64.16,2.45-.14,1.07-.48,1.88-1.89,2-2.88.33-5.73.92-8.6,1.4C524.08,111.34,521.68,107.22,516.85,105.14Z" transform="translate(0)" style="fill:#fefcf9"/><path d="M516.85,105.14c4.83,2.08,7.23,6.2,9.08,10.78,0,1-.07,2.08-.11,3.12C522.09,114.88,518.7,110.51,516.85,105.14Z" transform="translate(0)" style="fill:#e55320"/><path d="M556,97.68q.83,2.17,1.67,4.36c-2.79.09-5.57.94-8.36,0-.61-.22-1.57.17-1.53-1,0-.85.76-1.16,1.43-1.36C551.49,99,553.76,98.35,556,97.68Z" transform="translate(0)" style="fill:#922281"/><path d="M457.4,100.31a115.66,115.66,0,0,1,25.78,7c0,.47.43.39.68.55l2.83.66a40.63,40.63,0,0,0-4.49,2.06c-1.14.68-2.85,2.08-1.9,3.13,1.92,2.14,1,4.26.93,6.42-4.11-.65-7.72-2.83-11.72-3.83-1.14-3.5-5.28-6.5-9.16-6.69-.56,0-1.71.23-1.59-.25.59-2.26-2.08-3.2-1.88-5.21,0-1.25,0-2.49,0-3.74Z" transform="translate(0)" style="fill:#f29e72"/><path d="M488.06,129.68a8.17,8.17,0,0,1,1.78,4.59c0,1.74,1.52,2.45,2.69,3.34.43.33.93.62.74,1.25a1.21,1.21,0,0,1-1.23.81,5.47,5.47,0,0,1-2.36,0c-2.7-1.35-5.76.27-8.44-1.19-.88-.48-1,.37-1,1A26,26,0,0,1,479,144.8a5.06,5.06,0,0,1-.77.18c-3.54.27-3.66.19-3.34-3.34.15-1.56.53-3.1.82-4.65.08-.43.44-.91.33-1.26-1.54-4.65,2.09-4.18,4.61-4.51s2.31-2.41,2.73-4.09l1-.14C484.63,129.25,485.48,130.63,488.06,129.68Z" transform="translate(0)" style="fill:#ce141c"/><path d="M456.88,104.11c-.2,2,2.47,3,1.88,5.21-.12.48,1,.23,1.59.25,3.88.19,8,3.19,9.16,6.69a3.5,3.5,0,0,0-.36.69c-.9,4.25-.9,4.28-5.22,4a26.45,26.45,0,0,0-7,.77c3-2.87.4-5.66-.11-8.47C456.74,110.18,455.89,107.13,456.88,104.11Z" transform="translate(0)" style="fill:#fefcf9"/><path d="M484.43,127l-1,.13a25.1,25.1,0,0,0-1.71-6.48l-.45-.53v0c0-2.16,1-4.28-.93-6.42-.95-1,.76-2.45,1.9-3.13a40.63,40.63,0,0,1,4.49-2.06l3.93-1.33c.68,1.4-.7,2.57-.23,3.86A91.12,91.12,0,0,0,486,122.65,12.71,12.71,0,0,0,484.43,127Z" transform="translate(0)" style="fill:#fefcf9"/><path d="M445.77,138c-.33-7,4.68-14.24,10.55-15.34-.24.65-.3,1.51-.76,1.91C451.25,128.3,450,134.21,445.77,138Z" transform="translate(0)" style="fill:#ce141c"/><path d="M456.3,122.71l.51-.42Z" transform="translate(0)" style="fill:#ce141c"/><path d="M481.24,120.12l.45.53Z" transform="translate(0)" style="fill:#f29e72"/><path d="M105.22,128.07c-2.36-.95-4.62-2-5.92-4.42a9.89,9.89,0,0,0-2-2,30.72,30.72,0,0,1-4.79-6.78c-1.24-2.26-.07-4.37,2.48-4.93a76.58,76.58,0,0,1,14.41-1.48c-.77,1.74-.26,2.37,1.64,2.06a5.16,5.16,0,0,0,3.44-2.25l.15-.09.87-.67q2-1.2,4-2.41c2.59-.61,4.64-2.64,7.41-2.8.73,0,1.38-1,2.15-.35s.33,1.61.12,2.45c-.4,1.68-.77,3.38-1.16,5.07-3,4.51-7.11,8.26-9.46,13.28-.62,1.3-1.4,2.4-.48,3.81-.66.76-1.54.09-2.27.37-2.15-.54-4.58,1-6.59-.92-.19-.18-1.11.29-1.63.58C106.8,127,106,127.56,105.22,128.07Z" transform="translate(0)" style="fill:#fefefe"/><path d="M114.48,108.23a5.16,5.16,0,0,1-3.44,2.25c-1.9.31-2.41-.32-1.64-2.06Z" transform="translate(0)" style="fill:#2f89c5"/><path d="M115.5,107.47l-.87.67C114.41,107.25,115,107.44,115.5,107.47Z" transform="translate(0)" style="fill:#2f89c5"/><path d="M574.11,111.9a.8.8,0,0,0-.43.13c-.18,0-.36,0-.53,0-4.33.27-4.33.27-5.8-3.74-.74-2-1.55-3.12-4.07-5.55,1.4-.68,2.72.17,4,.09,2.48.62,4.95,1.34,7.46,1.83,3.91.78,7,3.14,10.13,5.3-2.82,1.61-6,1.08-9,1.71A1.93,1.93,0,0,0,574.11,111.9Z" transform="translate(0)" style="fill:#fefcf9"/><path d="M194.44,99.34a14.37,14.37,0,0,0-12.6-.17c1.13-2.17,1.6-4.69,3.74-6.2a2,2,0,0,0,.91-1.79c0-4.1,2.85-6.89,4.86-10,.89-1.39,2.92-.92,4.44-1.21.61-.12.62.77.71,1.42.28,1.8-.31,3.47-.48,5.2a15.51,15.51,0,0,0,1.09,7.52c.28.66.82,1.7-.55,1.72C194.13,95.86,194,97.33,194.44,99.34Z" transform="translate(0)" style="fill:#fefcf9"/><path d="M456.88,104.11c-1,3-.14,6.07-.1,9.11-4.31-.35-8.6-.87-12.91-1A103.28,103.28,0,0,0,420,114.42c-1.21.25-2.39.59-3.59.89a3.56,3.56,0,0,0-.47-.1c-.42-1.22-.85-2.45-1.28-3.67-.63.43.19,1.61-1.06,1.87-.89-3.19.55-5.58,2.33-7.91,1.46-1.92,3.82-2.76,5.37-4.55l.52-.26c2.54-.11,5-1.32,7.6-.59-1.21,2.28-3.84,2.66-5.94,4.15,1.82.72,3.49,1.08,4.61,2.44.45.55.91.44,1.17-.2,1.25-3.08,4.16-4.93,5.77-7.73.87.95,2,.48,3,.48,6.34,0,12.67-.08,18.94,1.13C456.91,101.62,456.89,102.86,456.88,104.11Z" transform="translate(0)" style="fill:#f9c583"/><path d="M435,98.76c-1.61,2.8-4.52,4.65-5.77,7.73-.26.64-.72.75-1.17.2-1.12-1.36-2.79-1.72-4.61-2.44,2.1-1.49,4.73-1.87,5.94-4.15,2.75-.88,4.38-3.09,6.12-5.16.72-.85,1.15-2,2.24-2.49l0-.06C437.65,94.88,436,96.67,435,98.76Z" transform="translate(0)" style="fill:#fefcf9"/><path d="M437.74,92.45l.31-.27v.22h-.35Z" transform="translate(0)" style="fill:#fefcf9"/><path d="M521.66,132.28c0,.16,0,.32,0,.47a20.85,20.85,0,0,1-12.81,5.38l-.57,0c-.34-.77-1-1.14-1.64-1.66-4-3.45-8.43-6.33-12.71-9.4a148.59,148.59,0,0,1,13.87-5.93h.57C513,124.64,517.37,128.41,521.66,132.28Z" transform="translate(0)" style="fill:#de674f"/><path d="M507.84,121.11A148.59,148.59,0,0,0,494,127c-.42-.07-.83-.1-1,.4l-.25,0-.26,0a15.47,15.47,0,0,0-.27-2.06A17.52,17.52,0,0,1,494,111.51c.17,1.34,1.42,1.44,2.28,1.94C500.27,115.79,504.33,118,507.84,121.11Z" transform="translate(0)" style="fill:#f29e72"/><path d="M521.66,132.28c-4.29-3.87-8.67-7.64-13.25-11.16,2.1-.75,4.09-1.83,6.35-2.12,2.91,3.43,5.31,7.3,8.93,10.1.07.32.14.64.22,1C522.81,130.45,522.45,131.59,521.66,132.28Z" transform="translate(0)" style="fill:#ce141c"/><path d="M483.86,107.82c-.25-.16-.68-.08-.68-.55,2.84-4,2-6.37-2.68-7.32a32.91,32.91,0,0,0-4.19-.55c-1.28-.1-2.57,0-3.9-.24,2.74-1.67,6.08-1.67,8.75-3.42.53-.34.94.36,1.24.74a23.86,23.86,0,0,0,7.85,6.19c1.54.8,1.29,1.27-.08,2C488.09,105.78,485.63,106.1,483.86,107.82Z" transform="translate(0)" style="fill:#fefcf9"/><path d="M494,111.51a17.52,17.52,0,0,0-1.83,13.87,15.47,15.47,0,0,1,.27,2.06l-4.3,1.87c-1.1-.21-1.83-.56-1.14-1.91a14.72,14.72,0,0,0,.78-2.49l.29-.66c0-.32,0-.63,0-.94,1.83-4,2.79-8.24,4.33-12.31.42-1.22.84-2.43,1.28-3.74C496.15,108.64,494.88,110.08,494,111.51Z" transform="translate(0)" style="fill:#fefcf9"/><path d="M492.4,111c-1.54,4.07-2.5,8.35-4.33,12.31a3.46,3.46,0,0,1-2.06-.66A91.12,91.12,0,0,1,490.39,111Z" transform="translate(0)" style="fill:#f29e72"/><path d="M415.9,115.21a3.56,3.56,0,0,1,.47.1c0,1.9,1.59,2.6,2.76,3.62.18,1.45.35,2.89.53,4.33l0,.19c-2.28-.57-3.83.53-5.07,2.27-.95,1.33-1.87,2.68-2.8,4,0-1.67-.1-3.35,0-5,.13-2.42,1.41-4.79.21-7.25,0-.08.11-.17.09-.23a2.67,2.67,0,0,0-.22-.45c0-.11,0-.23,0-.34Z" transform="translate(0)" style="fill:#f7b803"/><path d="M419.66,123.26c-.18-1.44-.35-2.88-.53-4.33,1,.07,2.45.12,2.5.95A3.19,3.19,0,0,1,419.66,123.26Z" transform="translate(0)" style="fill:#fefcf9"/><path d="M400.13,79.07c.95,2.08,0,4-.67,5.84a1.85,1.85,0,0,1-2.86.93c-1.26-.68-.18-1.45.17-2.18a6.45,6.45,0,0,0,1.09-2.94c.19-.68.37-1.36.56-2s.44-1,1.07-.92S400,78.58,400.13,79.07Z" transform="translate(0)" style="fill:#fefcf9"/><path d="M396.33,95.25l1.56-.73,3.65-1.09a34.72,34.72,0,0,1,2.29,3.16c1.14,2,3.07,4,.47,6.33-.47.43-.38,1.47-.56,2.23l-1.05.58a17.58,17.58,0,0,0-5.33,2.07l-1,.14a1.6,1.6,0,0,1-.52-1.68C396.78,102.62,396.08,98.92,396.33,95.25Z" transform="translate(0)" style="fill:#f09406"/><path d="M172.53,65.62c1.76,4.44.37,10.38-2.41,10.67C171.81,72.9,172,69.24,172.53,65.62Z" transform="translate(0)" style="fill:#fefcf9"/><path d="M396.33,95.25c-.25,3.67.45,7.37-.49,11a1.6,1.6,0,0,0,.52,1.68,116.76,116.76,0,0,0-40.57,29c-1.68,1.88-3.69,3.54-4.63,6a8.69,8.69,0,0,1-5.45-2.93c-2.11-2.22-7.45-1.87-9,.86a11.81,11.81,0,0,1-6.66,5.29c-1.28-2.06.06-4.05.22-6,.53-6.56,1.36-13.1-.26-19.62,0-.32,0-.65,0-1,.07-.06.19-.14.18-.18a3,3,0,0,0-.2-.4l-1.56-10.62.52,0c1.81-.29,2.2-1.49,2-3.08.58-2.47-.15-5,.1-7.44l1.07,0a8.78,8.78,0,0,0,1.2.47,125,125,0,0,0,32.09,3.12c0,.62-.12,1.23-.81,1.51l-.66-.07-4.11-.19c-1,.26-.48.6-.05.94,1.74,2.09,3.52,4.16,5.22,6.28,1.12,1.39,2,1.79,3-.14,1.53-2.78,4.29-5,4.08-8.59,0-.29.56-.61.87-.92,5.39.09,10.51-1.44,15.68-2.64C391.18,97,393.74,96,396.33,95.25Zm-55.85,37.17.34.4c1.24-.73,2.48-1.45,3.71-2.2,2.8-1.69,2.79-1.7.54-4.39C343.52,128.31,342,130.37,340.48,132.42Zm21.22-12.64c.53-1.16,1.76-1.81,1.9-3.33C360.55,117.85,360.55,117.85,361.7,119.78Z" transform="translate(0)" style="fill:#f0d401"/><path d="M384.32,130.71a42.25,42.25,0,0,1,.33,5.82c-.24,3.14,1.68,4.18,4.16,4.81,4.21,1.06,4.4,1.36,3.29,5.57-1.45,5.52-4.56,7.83-10.11,8.22-6.66.47-13-1.22-19.4-2.41a25,25,0,0,0-2.89-.23c-2.85-.4-5.71-.79-9.08.14A31.6,31.6,0,0,1,361.14,145a6.08,6.08,0,0,0,3.4-4.45c.44-2.68,1.73-5,2.71-7.42.59-1.49,1.34-2.87.69-4.56-.42-1.07.32-1.43,1.22-1.52a3.3,3.3,0,0,0,2.74-2.24,7.6,7.6,0,0,1,5.14-4.23,18.47,18.47,0,0,0,7.45-4.23A63.21,63.21,0,0,0,384.32,130.71Z" transform="translate(0)" style="fill:#fefefe"/><path d="M411.85,116.45c0,.11,0,.23,0,.34s-.09.17-.07.24a3.49,3.49,0,0,0,.2.44c1.2,2.46-.08,4.83-.21,7.25-.08,1.67,0,3.35,0,5l-.09.75c-.18.19-.34.53-.53.55a7.51,7.51,0,0,0-6,4.16c0,.06-.57-.18-.87-.28-1.67-4.5-.86-8.88.62-13.23.06-.06.18-.12.18-.18a2.46,2.46,0,0,0-.11-.45c0-.72-.09-1.43-.13-2.15a5.14,5.14,0,0,1,.48-3c2.36-3.7,3.14-7.9,3.78-12.14.41-.33.8-.7,1.4-.42C410.76,107.7,412,112,411.85,116.45Z" transform="translate(0)" style="fill:#fefcf9"/><path d="M397.36,107.8a17.58,17.58,0,0,1,5.33-2.07c.55,2.61-1.13,4.32-2.67,5.92-1.06,1.11-2.81.17-3-1.56A8.11,8.11,0,0,1,397.36,107.8Z" transform="translate(0)" style="fill:#f9c583"/><path d="M411.85,116.45c.14-4.44-1.09-8.75-1.33-13.15A42.1,42.1,0,0,1,421.26,101c-1.55,1.79-3.91,2.63-5.37,4.55-1.78,2.33-3.22,4.72-2.33,7.91,1.25-.26.43-1.44,1.06-1.87.43,1.22.86,2.45,1.28,3.67Z" transform="translate(0)" style="fill:#fbd990"/><path d="M124.35,140.32a25.58,25.58,0,0,0-12.19-6.41,4.25,4.25,0,0,1-3-2.66c2.49.52,5,1,7.46,1.57,3.79,1,5,.54,7.27-2.76,1.49-2.19,2.32-2.25,4.48-.38a2.14,2.14,0,0,0,1,.36c.77.16,1.93-.31,1.93,1.12s.28,3.05-1.42,3.93A14.07,14.07,0,0,0,124.35,140.32Z" transform="translate(0)" style="fill:#fefcf9"/><path d="M105.22,128.07c.8-.51,1.58-1.06,2.41-1.52.52-.29,1.44-.76,1.63-.58,2,1.92,4.44.38,6.59.92L108.29,131l-.94.15C107.3,129.65,105.74,129.22,105.22,128.07Z" transform="translate(0)" style="fill:#a2bbdf"/><path d="M651.23,122.73a7.41,7.41,0,0,1,6.21,6.79c-2.16-2.4-4.53-4.26-6.17-6.82Z" transform="translate(0)" style="fill:#fefcf9"/><path d="M651.27,122.7l-.3-.3.33,0c0,.12,0,.24-.07.36Z" transform="translate(0)" style="fill:#fefcf9"/><path d="M492.93,127.44c.21-.5.62-.47,1-.4,4.28,3.07,8.71,6,12.71,9.4.6.52,1.3.89,1.64,1.66C501.32,137.25,495.86,134.18,492.93,127.44Z" transform="translate(0)" style="fill:#ce141c"/><path d="M486,122.65a3.46,3.46,0,0,0,2.06.66c0,.31,0,.62,0,.94l-.29.66a14.72,14.72,0,0,1-.78,2.49c-.69,1.35,0,1.7,1.14,1.91a.53.53,0,0,1-.06.37c-2.58.95-3.43-.43-3.63-2.69A12.74,12.74,0,0,1,486,122.65Z" transform="translate(0)" style="fill:#e55320"/><path d="M309.34,147.34c-1.09-1-2.16-2-3.29-3-3-2.56-2.76-4.41.84-5.84,3.1-1.24,6.29-2.27,9.35-3.58a9.28,9.28,0,0,0,4.17-3.12c.43-.28.9-.53,1-1.1h0c.49.07.92,0,1.08-.54h0c.35,0,.6-.13.55-.55h0c1.16,0,1-.9,1.08-1.62l0,0,.56-1.1,0,0a1.3,1.3,0,0,0,.56-1.1v0c.92-1.28,1.34-3.15,3.59-3.1a13.69,13.69,0,0,1-1,6.22,9.42,9.42,0,0,0-.54,4.93c.05.7.18,1.87-.51,1.81-3.37-.26-4.33,3.3-6.94,4.15-3.77,1.81-6.4,5.08-9.63,7.57Z" transform="translate(0)" style="fill:#fefcf9"/><path d="M310.18,147.52c3.23-2.49,5.86-5.76,9.63-7.57q-1.35,6.6-2.69,13.2a2,2,0,0,1-.71-.29c-2-1.91-3.85-3.17-5.53.33-.12.25-.77.24-1.17.36.42-2.27-2.17-1.21-2.7-2.44C310.72,150.32,311,150,310.18,147.52Z" transform="translate(0)" style="fill:#f0d401"/><path d="M309.71,153.55c.4-.12,1.05-.11,1.17-.36,1.68-3.5,3.56-2.24,5.53-.33a2,2,0,0,0,.71.29l-.48.87c-2.22.12-4.44.25-6.65.35-.48,0-.48-.37-.47-.72Z" transform="translate(0)" style="fill:#fefcf9"/><path d="M411.15,137.59c0-.35.21-.44.5-.45C411.55,137.36,411.65,137.81,411.15,137.59Z" transform="translate(0)" style="fill:#fefefe"/><path d="M574.11,111.9a1.93,1.93,0,0,1,1.77-.23A1.55,1.55,0,0,1,574.11,111.9Z" transform="translate(0)" style="fill:#e17486"/><path d="M405,121.06a2.46,2.46,0,0,1,.11.45c0,.06-.12.12-.18.18C405,121.48,405,121.27,405,121.06Z" transform="translate(0)" style="fill:#f8e790"/><path d="M321.45,130.7c-.14.57-.61.82-1,1.1l-.06-1.13Z" transform="translate(0)" style="fill:#e7e252"/><path d="M365.3,101.38a125,125,0,0,1-32.09-3.12,8.78,8.78,0,0,1-1.2-.47c1.73-1.23,3.37,0,5,.33,4.13.94,7-1.75,10.27-3.32,1-.48-1.28-2,.15-2.88l1.78,2c-.65.77.1.53.44.6h0l.67.53a1.08,1.08,0,0,1,.36,1.1l-.5.62c.45,2.37,2.34,2.55,4.16,2.6,3.14.08,6.29,0,9.43,0C365.3,99.28,365.76,99.92,365.3,101.38Z" transform="translate(0)" style="fill:#f8e790"/><path d="M328.88,108.34l-.52,0q-1.71-5.28-3.41-10.54c-.16-.49-.56-1-.05-1.44s1,0,1.48.13L331,97.82c-.26,2.48.47,5-.11,7.44C329.16,105.63,328.68,106.77,328.88,108.34Z" transform="translate(0)" style="fill:#ccc600"/><path d="M324.11,128c-.09.72.08,1.61-1.08,1.62A1.46,1.46,0,0,1,324.11,128Z" transform="translate(0)" style="fill:#e7e252"/><path d="M349.11,89.82A2.16,2.16,0,0,1,347.52,91C347.41,89.76,348.26,89.78,349.11,89.82Z" transform="translate(0)" style="fill:#f8e790"/><path d="M325.18,125.9a1.3,1.3,0,0,1-.56,1.1C324.62,126.54,324.65,126.09,325.18,125.9Z" transform="translate(0)" style="fill:#e7e252"/><path d="M324.64,127l-.56,1.1C324.1,127.6,324.12,127.15,324.64,127Z" transform="translate(0)" style="fill:#e7e252"/><path d="M322.5,130.17c-.16.57-.59.61-1.08.54A.92.92,0,0,1,322.5,130.17Z" transform="translate(0)" style="fill:#e7e252"/><path d="M329.92,119a3,3,0,0,1,.2.4s-.11.12-.18.18C329.94,119.37,329.93,119.17,329.92,119Z" transform="translate(0)" style="fill:#e7e252"/><path d="M323,129.63c0,.42-.2.53-.55.55Z" transform="translate(0)" style="fill:#e7e252"/><path d="M349.61,94.53c-.34-.07-1.09.17-.44-.6Z" transform="translate(0)" style="fill:#eae67e"/><path d="M359.67,103.57c-.43-.34-.93-.68.05-.94Z" transform="translate(0)" style="fill:#f8e790"/><path d="M350.25,95.06l-.67-.53Z" transform="translate(0)" style="fill:#eae67e"/><path d="M350.11,96.78l.5-.62Z" transform="translate(0)" style="fill:#eae67e"/><path d="M363.83,102.82l.66.07Z" transform="translate(0)" style="fill:#f8e790"/><path d="M487.76,124.91l.29-.66Z" transform="translate(0)" style="fill:#f29e72"/><path d="M411.94,117.47a3.49,3.49,0,0,1-.2-.44c0-.07.05-.16.07-.24a2.67,2.67,0,0,1,.22.45C412.05,117.3,412,117.39,411.94,117.47Z" transform="translate(0)" style="fill:#fbd990"/><path d="M340.48,132.42c1.52-2,3-4.11,4.59-6.19,2.25,2.69,2.26,2.7-.54,4.39-1.23.75-2.47,1.47-3.71,2.2Z" transform="translate(0)" style="fill:#fefcf9"/><path d="M361.7,119.78c-1.15-1.93-1.15-1.93,1.9-3.33C363.46,118,362.23,118.62,361.7,119.78Z" transform="translate(0)" style="fill:#f3efb6"/><path d="M328.88,108.34c-.2-1.57.28-2.71,2-3.08C331.08,106.85,330.69,108.05,328.88,108.34Z" transform="translate(0)" style="fill:#f3efb6"/></g></g></svg>